<?xml version="1.0" encoding="utf-8"?>
<!-- Generator: Adobe Illustrator 27.9.1, SVG Export Plug-In . SVG Version: 6.00 Build 0)  -->
<svg version="1.1" id="Layer_1" xmlns="http://www.w3.org/2000/svg" xmlns:xlink="http://www.w3.org/1999/xlink" x="0px" y="0px"
	 viewBox="0 0 595.28 841.89" style="enable-background:new 0 0 595.28 841.89;" xml:space="preserve">
<style type="text/css">
	.st0{fill:none;}
</style>
<g>
	<path class="st0" d="M79.56,567.78c-9.94-65.6,13.35-135.37,60.69-181.85c68.27-67.02,171.21-79.59,265.75-94.23
		c112.04-17.35,225.02-43.36,322.44-101.35S906.65,37.9,925.02-73.98"/>
	<path d="M53.23,381.09l5.48,2.99l41.32,57.21l-4.69,8.59l-39.76-56.24l-0.19-0.1l-16.38,30.02l-6.89-3.76L53.23,381.09z"/>
	<path d="M137.62,388.39l-14.04-12.85l-21.93,23.96l-4.6-4.21l-11.87-53.14l6.9-7.54l32.05,29.33l6.61-7.22l5.47,5.01l-6.61,7.22
		l14.04,12.85L137.62,388.39z M118.1,370.52l-17.22-15.75c-2.7-2.47-5.32-5.02-7.87-7.64l-0.22,0.24c1.56,4.35,2.62,7.65,3.7,11.25
		l5.99,28.66l0.16,0.15L118.1,370.52z"/>
	<path d="M150.67,344.31l3.31,4.53l4.1-3l1.59,2.18l-4.1,3l6.21,8.5c1.43,1.95,2.79,2.66,4.39,1.49c0.75-0.55,1.23-1.05,1.52-1.41
		l1.7,2.05c-0.39,0.63-1.15,1.44-2.25,2.25c-1.34,0.98-2.72,1.34-3.98,1.06c-1.43-0.25-2.75-1.44-4.1-3.3l-6.28-8.6l-2.44,1.78
		l-1.59-2.18l2.44-1.78l-2.76-3.78L150.67,344.31z"/>
	<path d="M182.83,346.77c1.07,1.71,2.05,3.19,2.97,4.42l-2.66,1.68l-1.87-2.59l-0.07,0.04c0.05,1.83-0.59,4.66-3.52,6.51
		c-2.59,1.63-6.6,2.16-10.25-3.64l-6.08-9.65l3-1.89l5.76,9.14c1.98,3.14,4.27,4.65,6.99,2.93c2.01-1.27,2.53-3.55,2.24-5.22
		c-0.11-0.55-0.35-1.16-0.69-1.71l-6.38-10.13l3-1.89L182.83,346.77z"/>
	<path d="M183.41,337.2c-1.1-2.02-2.08-3.73-3.06-5.27l2.73-1.49l1.94,3.31l0.14-0.08c-0.48-2.73,0.61-5.2,2.7-6.34
		c0.35-0.19,0.62-0.29,0.94-0.38l1.6,2.94c-0.36,0.1-0.7,0.24-1.12,0.47c-2.19,1.2-2.85,3.71-2,6.28c0.16,0.46,0.36,1,0.65,1.53
		l4.98,9.14l-3.08,1.68L183.41,337.2z"/>
	<path d="M198.1,334.29c2.14,4.3,5.76,4.76,8.96,3.23c2.29-1.09,3.48-2.15,4.44-3.24l1.64,2.03c-0.89,1.05-2.54,2.55-5.34,3.89
		c-5.42,2.59-10.37,0.56-12.9-4.75c-2.54-5.31-1.4-10.99,3.73-13.44c5.75-2.74,9.69,1.59,11.24,4.83c0.31,0.66,0.48,1.2,0.6,1.54
		L198.1,334.29z M206.39,327.52c-0.94-2.06-3.32-4.81-6.92-3.09c-3.24,1.54-3.24,5.21-2.43,7.55L206.39,327.52z"/>
	<path d="M212.57,322.87c-0.89-2.12-1.68-3.93-2.49-5.56l2.87-1.2l1.59,3.49l0.15-0.06c-0.19-2.76,1.15-5.11,3.34-6.03
		c0.37-0.15,0.65-0.23,0.98-0.28l1.29,3.09c-0.37,0.07-0.72,0.17-1.16,0.35c-2.31,0.96-3.22,3.4-2.64,6.04
		c0.11,0.48,0.25,1.03,0.49,1.59l4.01,9.6l-3.24,1.35L212.57,322.87z"/>
	<path d="M232.71,302.54l1.86,5.29l4.8-1.68l0.89,2.55l-4.8,1.68l3.49,9.93c0.8,2.28,1.9,3.35,3.77,2.7
		c0.88-0.31,1.48-0.65,1.86-0.91l1.03,2.46c-0.55,0.49-1.51,1.04-2.81,1.5c-1.56,0.55-2.99,0.49-4.11-0.14
		c-1.3-0.66-2.22-2.17-2.98-4.34l-3.53-10.05l-2.85,1l-0.89-2.55l2.85-1l-1.55-4.42L232.71,302.54z"/>
	<path d="M245.29,298.49c0.41,1.14-0.14,2.33-1.48,2.76c-1.19,0.38-2.33-0.27-2.7-1.42c-0.38-1.19,0.21-2.4,1.43-2.79
		C243.81,296.63,244.91,297.29,245.29,298.49z M249.18,323.5l-5.97-18.58l3.38-1.09l5.97,18.59L249.18,323.5z"/>
	<path d="M249.64,293.35l3.4-1.01l8.19,27.43l-3.4,1.02L249.64,293.35z"/>
	<path d="M270.9,302.12c-0.47-1.96-0.89-3.56-1.39-5.1l3.02-0.72l0.89,3.02l0.12-0.03c0.63-2.06,1.99-4.17,5.13-4.92
		c2.59-0.62,4.92,0.48,6.28,2.52l0.08-0.02c0.33-1.2,0.88-2.2,1.53-2.98c0.93-1.13,2.07-1.91,3.88-2.34
		c2.51-0.6,6.63,0.16,8.21,6.74l2.68,11.18l-3.37,0.81l-2.57-10.75c-0.87-3.65-2.73-5.52-5.52-4.86c-1.96,0.47-3.14,2.29-3.33,4.11
		c-0.04,0.51-0.01,1.17,0.14,1.79l2.81,11.73l-3.37,0.81l-2.72-11.37c-0.72-3.02-2.58-4.9-5.21-4.27c-2.16,0.52-3.31,2.62-3.45,4.48
		c-0.07,0.56-0.01,1.16,0.13,1.75l2.74,11.45l-3.37,0.81L270.9,302.12z"/>
	<path d="M316.92,306.4l-0.76-2.36l-0.12,0.02c-0.76,1.72-2.55,3.48-5.28,4.03c-3.87,0.78-6.4-1.55-6.96-4.32
		c-0.93-4.62,2.67-7.98,10.07-9.43l-0.08-0.4c-0.32-1.58-1.33-4.34-5.24-3.55c-1.78,0.36-3.53,1.29-4.69,2.43l-1.25-2.13
		c1.37-1.35,3.53-2.48,5.94-2.97c5.85-1.18,8.08,2.53,8.85,6.36l1.44,7.16c0.33,1.66,0.74,3.26,1.24,4.52L316.92,306.4z
		 M303.93,283.18c-0.42-2.1,0.79-4.07,3.28-4.57c2.37-0.48,4.24,0.83,4.66,2.93c0.42,2.1-0.97,3.98-3.22,4.43
		C306.27,286.45,304.33,285.2,303.93,283.18z M309.92,281.89c-0.24-1.19-1.23-2.02-2.49-1.76c-1.23,0.25-1.73,1.42-1.48,2.64
		c0.21,1.03,1.22,1.98,2.37,1.75C309.58,284.26,310.16,283.08,309.92,281.89z M314.44,296.73c-3.81,0.69-7.98,2.23-7.23,5.94
		c0.45,2.25,2.17,3.02,3.95,2.66c2.49-0.5,3.75-2.4,3.98-4.14c0.05-0.38,0.05-0.79-0.03-1.15L314.44,296.73z"/>
	<path d="M322.5,290.81c-0.36-1.98-0.69-3.6-1.09-5.17l3.1-0.56l0.77,3.14l0.08-0.01c0.62-2,2.53-4.18,5.7-4.75
		c2.66-0.48,7.07,0.37,8.26,6.96l2.06,11.47l-3.49,0.63l-1.99-11.07c-0.56-3.1-2.17-5.47-5.47-4.88c-2.3,0.41-3.8,2.36-4.04,4.41
		c-0.08,0.46-0.05,1.07,0.05,1.67l2.07,11.55l-3.49,0.63L322.5,290.81z"/>
	<path d="M347.28,291.66c0.86,4.72,4.2,6.18,7.7,5.6c2.51-0.41,3.95-1.1,5.17-1.87l1.01,2.41c-1.14,0.76-3.15,1.74-6.21,2.25
		c-5.93,0.97-10.11-2.35-11.06-8.16c-0.95-5.81,1.72-10.95,7.33-11.87c6.29-1.03,8.87,4.23,9.45,7.77c0.12,0.72,0.13,1.29,0.15,1.65
		L347.28,291.66z M357.14,287.47c-0.33-2.24-1.85-5.54-5.79-4.9c-3.54,0.58-4.56,4.1-4.44,6.57L357.14,287.47z"/>
	<path d="M364.4,283.7c-0.31-1.99-0.6-3.62-0.97-5.2l3.11-0.48l0.69,3.16l0.08-0.01c0.67-1.98,2.63-4.12,5.82-4.62
		c2.67-0.41,7.06,0.54,8.09,7.15l1.79,11.52l-3.51,0.54l-1.72-11.12c-0.48-3.11-2.04-5.52-5.35-5.01c-2.31,0.36-3.85,2.27-4.15,4.32
		c-0.09,0.46-0.08,1.07,0.01,1.67l1.8,11.6l-3.51,0.54L364.4,283.7z"/>
	<path d="M413.03,280.58c1.1,7.14-3.36,11.01-8.03,11.73c-5.22,0.8-9.84-2.4-10.78-8.5c-1-6.46,2.64-10.9,7.99-11.72
		C407.75,271.23,412.12,274.68,413.03,280.58z M397.75,283.14c0.65,4.22,3.57,7.04,7,6.51c3.35-0.52,5.37-4.05,4.7-8.4
		c-0.5-3.27-2.78-7.16-6.92-6.52C398.39,275.37,397.19,279.47,397.75,283.14z"/>
	<path d="M432.21,267.7c0.15,1.41,0.33,2.97,0.71,5.32l1.85,11.18c0.73,4.42,0.3,7.27-1.29,9.25c-1.58,2.06-4.2,3.06-6.62,3.46
		c-2.31,0.38-4.95,0.24-6.67-0.53l0.44-2.81c1.4,0.59,3.51,0.97,5.9,0.58c3.58-0.59,5.9-2.9,5.1-7.75l-0.35-2.15l-0.08,0.01
		c-0.78,1.97-2.61,3.74-5.6,4.23c-4.78,0.79-8.87-2.71-9.75-8.04c-1.08-6.53,2.57-10.93,6.99-11.66c3.34-0.55,5.46,0.9,6.56,2.35
		l0.08-0.01l-0.32-2.93L432.21,267.7z M429.84,275.9c-0.1-0.6-0.22-1.11-0.46-1.56c-0.97-1.92-2.96-3.31-5.51-2.89
		c-3.34,0.55-5.26,3.77-4.53,8.23c0.62,3.78,3.05,6.61,6.83,5.98c2.15-0.35,3.88-2.03,4.26-4.38c0.1-0.63,0.07-1.32-0.03-1.92
		L429.84,275.9z"/>
	<path d="M449.58,258.93l1,5.52l5-0.91l0.48,2.66l-5,0.9l1.88,10.36c0.43,2.38,1.35,3.61,3.29,3.26c0.91-0.17,1.57-0.41,1.98-0.6
		l0.63,2.59c-0.62,0.4-1.66,0.79-3.01,1.04c-1.63,0.29-3.03,0.02-4.04-0.79c-1.18-0.85-1.85-2.49-2.25-4.76l-1.9-10.48l-2.98,0.54
		l-0.48-2.66l2.98-0.54l-0.83-4.6L449.58,258.93z"/>
	<path d="M462.57,256.65c0.26,1.18-0.43,2.3-1.81,2.56c-1.23,0.23-2.28-0.55-2.5-1.74c-0.23-1.23,0.5-2.35,1.77-2.59
		C461.33,254.63,462.34,255.42,462.57,256.65z M463.33,281.95l-3.62-19.18l3.49-0.66l3.62,19.18L463.33,281.95z"/>
	<path d="M467.38,252.03l3.48-0.68l5.5,28.1l-3.48,0.68L467.38,252.03z"/>
	<path d="M482.62,278.23c-0.19-1.32-0.52-3.27-0.87-4.97l-4.82-23.1l3.43-0.72l2.5,12l0.08-0.02c0.78-2.39,2.7-4.23,5.78-4.87
		c4.74-0.99,8.92,2.26,10.09,8.07c1.43,6.83-2.17,11.12-6.43,12.02c-2.76,0.58-5.2-0.03-7.15-2.26l-0.12,0.02l0.5,3.19
		L482.62,278.23z M484.61,269.82c0.09,0.43,0.26,0.85,0.42,1.23c1.17,2.27,3.53,3.51,6.06,2.98c3.63-0.76,5.19-4.17,4.27-8.56
		c-0.8-3.83-3.46-6.69-7.17-5.92c-2.37,0.5-4.24,2.58-4.4,5.37c0,0.41-0.02,0.91,0.1,1.46L484.61,269.82z"/>
	<path d="M516.56,270.88l-0.82-2.34l-0.12,0.03c-0.72,1.74-2.46,3.54-5.18,4.16c-3.85,0.88-6.44-1.39-7.06-4.14
		c-1.05-4.6,2.47-8.05,9.83-9.68l-0.09-0.39c-0.36-1.57-1.43-4.31-5.33-3.42c-1.77,0.4-3.49,1.37-4.63,2.54l-1.3-2.1
		c1.34-1.38,3.47-2.57,5.87-3.11c5.82-1.32,8.14,2.33,9.01,6.14l1.62,7.12c0.38,1.65,0.82,3.25,1.35,4.49L516.56,270.88z
		 M513.84,261.28c-3.79,0.78-7.93,2.42-7.09,6.12c0.51,2.24,2.25,2.96,4.01,2.56c2.48-0.56,3.69-2.49,3.88-4.23
		c0.04-0.38,0.03-0.79-0.05-1.15L513.84,261.28z"/>
	<path d="M526.62,257.63l0.08-0.02c0.31-0.78,0.77-1.77,1.15-2.57l3.95-7.91l4.15-1.02l-5.4,9.6l11.09,9.11l-4.19,1.03l-8.78-7.47
		l-1.28,2.39l1.76,7.13l-3.41,0.84l-6.85-27.8l3.41-0.84L526.62,257.63z"/>
	<path d="M544.54,254.62c1.32,4.62,4.79,5.73,8.22,4.82c2.45-0.66,3.82-1.48,4.96-2.37l1.24,2.3c-1.06,0.87-2.96,2.04-5.96,2.85
		c-5.8,1.55-10.29-1.34-11.81-7.03c-1.52-5.69,0.63-11.06,6.12-12.53c6.16-1.65,9.24,3.33,10.17,6.8c0.19,0.7,0.26,1.27,0.31,1.63
		L544.54,254.62z M553.94,249.48c-0.54-2.19-2.39-5.33-6.24-4.3c-3.47,0.93-4.13,4.53-3.77,6.98L553.94,249.48z"/>
</g>
<g>
</g>
<g>
</g>
<g>
</g>
<g>
</g>
<g>
</g>
<g>
</g>
</svg>
