<?xml version="1.0" encoding="utf-8"?>
<!-- Generator: Adobe Illustrator 27.9.1, SVG Export Plug-In . SVG Version: 6.00 Build 0)  -->
<svg version="1.1" id="Layer_1" xmlns="http://www.w3.org/2000/svg" xmlns:xlink="http://www.w3.org/1999/xlink" x="0px" y="0px"
	 viewBox="0 0 595.28 841.89" style="enable-background:new 0 0 595.28 841.89;" xml:space="preserve">
<style type="text/css">
	.st0{fill:#A1CF6D;}
	.st1{fill:#FFFFFF;stroke:#000000;stroke-width:4.6017;stroke-miterlimit:10;}
	.st2{stroke:#000000;stroke-miterlimit:10;}
</style>
<g>
	<g>
		<g>
			<path class="st0" d="M-43.15,303.27c-4.05-0.55-8.41-0.27-11.86,1.92c-3.45,2.19-5.65,6.68-4.27,10.52l-0.85,2.7
				c-4.94-0.17-8.94,4.91-8.94,9.85c0,4.45,2.09,12.32,10.14,12.32c3.41,0,1.07,5.38,3.95,7.2l1.47-0.41
				c0.58,3.5,2.98,6.59,6.11,8.27c3.13,1.67,6.91,1.97,10.34,1.07c1.43-0.38,2.28-0.89,3.43-1.83c0.15-0.13,0.49-0.51,0.68-0.62
				c0.06-0.03,0.12-0.05,0.18-0.02c0.84,0.37,4.69,1.96,7.03,0.97c2.65-1.11,4.44-3.59,5.95-6.03c1.62-2.62,3.1-5.44,3.36-8.5
				l1.94,1.36c1.49,1.42,4.16,0.54,5.25-1.2s1.05-3.94,0.93-5.99c-0.13-2.19-0.41-4.58-1.98-6.1c-2.02-1.95-5.23-1.65-8-1.23
				l2.55-3.3c1.68-2.28,1.64-5.67-0.09-7.91s-5-3.13-7.63-2.07l0.34-0.28c0.36-3.47,0.62-7.31-1.49-10.09
				c-2.36-3.11-6.85-3.67-10.72-3.12c-2.51,0.36-5.06,1.13-6.94,2.83c-1.88,1.7-2.93,4.51-2,6.87"/>
			<g>
				<path d="M-43.15,300.77c-4.92-0.64-10.25-0.06-14.26,3.09c-3.68,2.88-5.79,7.95-4.28,12.52c0-0.44,0-0.89,0-1.33
					c-0.28,0.9-0.57,1.8-0.85,2.7c0.8-0.61,1.61-1.22,2.41-1.84c-4.38-0.04-8.24,2.85-10.08,6.72c-1.55,3.25-1.62,6.77-0.78,10.22
					c0.78,3.21,2.47,6.17,5.15,8.14c1.43,1.05,3.14,1.68,4.89,1.93c0.56,0.08,1.11,0.14,1.67,0.16c-0.11,0,0.59,0.03,0.6,0.02
					c-0.06,0.07-0.4-0.06-0.46-0.11c-0.19-0.14-0.22-0.25-0.37-0.39c0.24,0.23,0.05,0.11,0-0.08c0.08,0.35,0.19,0.7,0.26,1.06
					c0.01,0.08,0.07,0.48,0.01,0.05c0.03,0.21,0.05,0.41,0.08,0.62c0.07,0.51,0.13,1.03,0.23,1.53c0.18,0.88,0.5,1.76,1,2.51
					c0.82,1.22,2.08,2.23,3.63,1.91c0.5-0.1,0.98-0.27,1.47-0.41c-1.03-0.58-2.05-1.16-3.08-1.75c0.96,5.2,5.05,9.33,10,10.92
					c2.74,0.87,5.68,0.93,8.48,0.4c1.25-0.24,2.5-0.63,3.6-1.27c0.98-0.57,1.76-1.36,2.64-2.06c-0.59,0.24-1.18,0.49-1.77,0.73
					c0.06-0.01,0.12-0.01,0.18-0.02c-0.42-0.11-0.84-0.23-1.26-0.34c1.84,0.8,3.72,1.42,5.73,1.6c2.67,0.23,4.98-0.94,6.91-2.7
					c1.88-1.72,3.3-3.98,4.55-6.18c1.52-2.64,2.6-5.39,2.91-8.44c-1.25,0.72-2.51,1.44-3.76,2.16c0.63,0.44,1.26,0.87,1.88,1.32
					c-0.58-0.42,0.27,0.24,0.54,0.4c0.35,0.2,0.74,0.38,1.13,0.48c0.91,0.25,1.87,0.26,2.79,0.06c3.87-0.81,5.51-4.56,5.6-8.17
					c0.08-3.37-0.23-7.45-2.77-9.95c-2.79-2.75-6.89-2.4-10.43-1.87c0.94,1.22,1.88,2.45,2.82,3.67c2.13-2.77,4.39-5.29,4.09-9.08
					c-0.46-5.85-6.48-9.93-12.09-7.87c0.81,1.39,1.62,2.79,2.43,4.18c1.47-1.2,1.3-3.8,1.32-5.59c0.02-2.12-0.26-4.23-1.13-6.17
					c-1.68-3.76-5.39-5.61-9.31-6.07c-3.77-0.45-8.19,0.25-11.45,2.29c-3.5,2.2-5.86,6.52-4.42,10.65c0.45,1.27,1.71,2.12,3.08,1.75
					c1.24-0.34,2.19-1.8,1.75-3.08c-0.82-2.34,0.8-4.33,2.81-5.39c2.21-1.17,5.05-1.47,7.51-1.28c2.13,0.16,4.35,1.01,5.39,2.99
					c1.22,2.34,0.78,5.35,0.53,7.86c0.24-0.59,0.49-1.18,0.73-1.77c-0.11,0.09-0.23,0.19-0.34,0.28c-1.91,1.57,0.14,5.02,2.43,4.18
					c3.09-1.13,6.4,1.13,5.7,4.58c-0.38,1.86-2.23,3.57-3.35,5.03c-0.59,0.77-0.35,2.09,0.2,2.78c0.68,0.85,1.59,1.05,2.63,0.9
					c1.66-0.25,4.2-0.68,5.57,0.59c1.44,1.33,1.31,4.22,1.31,6c0,0.99-0.02,2.23-0.65,3.07c-0.15,0.2-0.4,0.42-0.71,0.55
					c-0.01,0-0.8,0.14-0.46,0.14c0.17,0-0.36-0.16-0.18-0.03c0.22,0.16-0.31-0.23-0.49-0.37c-0.16-0.12-0.33-0.23-0.49-0.35
					c-0.48-0.34-0.96-0.67-1.44-1.01c-1.71-1.2-3.59,0.46-3.76,2.16c-0.23,2.19-1.25,4.23-2.34,6.1c-1.03,1.78-2.13,3.57-3.66,4.97
					c-1.28,1.17-2.41,1.47-4.06,1.11c-0.78-0.17-1.54-0.42-2.29-0.7c-0.14-0.05-0.27-0.1-0.4-0.16c0.33,0.14,0.38,0.16,0.17,0.07
					c-0.61-0.26-1.12-0.39-1.77-0.28c-0.99,0.18-1.48,0.8-2.21,1.39c-0.66,0.55-1.41,0.89-2.23,1.11c-2.03,0.55-4.22,0.56-6.25,0.02
					c-3.68-0.99-6.43-3.85-7.12-7.6c-0.24-1.33-1.86-2.08-3.08-1.75c-0.49,0.14-0.98,0.27-1.47,0.41c0.64,0.08,1.28,0.17,1.93,0.25
					c0.14,0.1-0.07-0.09-0.04-0.06c-0.07-0.08-0.14-0.22-0.17-0.31c0.02,0.05,0.12,0.31,0.03,0.03c-0.09-0.27-0.16-0.56-0.21-0.84
					c-0.02-0.12-0.04-0.25-0.06-0.37c-0.07-0.42,0.04,0.34-0.01-0.08c-0.18-1.31-0.25-2.67-0.95-3.84c-1.61-2.7-5.01-1.65-7.14-2.82
					c-1.8-0.99-2.97-2.8-3.58-4.72c-0.17-0.52-0.3-1.04-0.42-1.57c-0.05-0.24-0.09-0.47-0.14-0.71c-0.02-0.12-0.04-0.23-0.06-0.35
					c0.07,0.49,0-0.03-0.01-0.13c-0.09-1.12-0.14-2.22,0.13-3.32c0.73-2.9,3.07-5.65,6.22-5.62c1.13,0.01,2.08-0.79,2.41-1.84
					c0.39-1.23,1.14-2.72,0.85-4.03c-0.45-2.07-0.29-3.73,0.93-5.55c2.75-4.1,8.38-4.3,12.79-3.73c1.34,0.17,2.5-1.27,2.5-2.5
					C-40.65,301.78-41.8,300.95-43.15,300.77L-43.15,300.77z"/>
			</g>
		</g>
		<g>
			<path class="st1" d="M-53.43,317.57c-1.99,4.55-1.73,11.65-1.82,15.54c0.08,1.17,0.94,2.64,2.01,3.08
				c0.89,0.44,1.69,0.53,2.78,0.54c2.4,0.01,4.65-1.31,5.68-3.47c0.56-1.19,0.9-2.48,1.26-3.64c0.36-1.66,0.97-4.21,1.22-6.81
				C-45.75,320.33-49.43,318.27-53.43,317.57z"/>
			<path class="st2" d="M-45.17,342.45c-0.62,0.06-1.05,0.64-0.92,1.25c0.15,0.71,0.46,1.59,1.11,2.41
				c1.48,1.86,3.71,2.17,4.88,2.19c0.44,0.01,0.87-0.18,1.14-0.53c1.88-2.39,4.6-4.26,7.66-5.82c0.47-0.24,0.25-0.95-0.27-0.89
				C-36.09,341.52-40.63,341.98-45.17,342.45z"/>
			<path class="st0" d="M-45.96,326.9c0.27,2.49-2.98,3.69-3.62,0.94c-0.45-1.33,0.57-2.88,1.92-2.99
				C-46.83,325.26-45.78,325.84-45.96,326.9z"/>
		</g>
		<g>
			<path class="st1" d="M-26.3,318.54c1.99,4.55,1.73,11.65,1.82,15.54c-0.08,1.17-0.94,2.64-2.01,3.08
				c-1.13,0.56-2.31,0.68-3.44,0.31c-0.51-0.17-1.05-0.24-1.58-0.33c-2.73-0.49-3.97-4.19-4.7-6.55c-0.36-1.66-0.97-4.21-1.22-6.81
				C-33.98,321.3-30.3,319.24-26.3,318.54z"/>
			<path class="st0" d="M-33.77,327.87c-0.27,2.49,2.98,3.69,3.62,0.94c0.45-1.33-0.57-2.88-1.92-2.99
				C-32.9,326.23-33.95,326.8-33.77,327.87z"/>
		</g>
	</g>
	<g>
		<g>
			<path class="st0" d="M75.62,392.45c-4.05-0.55-8.41-0.27-11.86,1.92c-3.45,2.19-5.65,6.68-4.27,10.52l-0.85,2.7
				c-4.94-0.17-8.94,4.91-8.94,9.85c0,4.45,2.09,12.32,10.14,12.32c3.41,0,1.07,5.38,3.95,7.2l1.47-0.41
				c0.58,3.5,2.98,6.59,6.11,8.27s6.91,1.97,10.34,1.07c1.43-0.38,2.28-0.89,3.43-1.83c0.15-0.13,0.49-0.51,0.68-0.62
				c0.06-0.03,0.12-0.05,0.18-0.02c0.84,0.37,4.69,1.96,7.03,0.97c2.65-1.11,4.44-3.59,5.95-6.03c1.62-2.62,3.1-5.44,3.36-8.5
				l1.94,1.36c1.49,1.42,4.16,0.54,5.25-1.2c1.09-1.74,1.05-3.94,0.93-5.99c-0.13-2.19-0.41-4.58-1.98-6.1
				c-2.02-1.95-5.23-1.65-8-1.23l2.55-3.3c1.68-2.28,1.64-5.67-0.09-7.91c-1.73-2.24-5-3.13-7.63-2.07l0.34-0.28
				c0.36-3.47,0.62-7.31-1.49-10.09c-2.36-3.11-6.85-3.67-10.72-3.12c-2.51,0.36-5.06,1.13-6.94,2.83c-1.88,1.7-2.93,4.51-2,6.87"/>
			<g>
				<path d="M75.62,389.95c-4.92-0.64-10.25-0.06-14.26,3.09c-3.68,2.88-5.79,7.95-4.28,12.52c0-0.44,0-0.89,0-1.33
					c-0.28,0.9-0.57,1.8-0.85,2.7c0.8-0.61,1.61-1.22,2.41-1.84c-4.38-0.04-8.24,2.85-10.08,6.72c-1.55,3.25-1.62,6.77-0.78,10.22
					c0.78,3.21,2.47,6.17,5.15,8.14c1.43,1.05,3.14,1.68,4.89,1.93c0.56,0.08,1.11,0.14,1.67,0.16c-0.11,0,0.59,0.03,0.6,0.02
					c-0.06,0.07-0.4-0.06-0.46-0.11c-0.19-0.14-0.22-0.25-0.37-0.39c0.24,0.23,0.05,0.11,0-0.08c0.08,0.35,0.19,0.7,0.26,1.06
					c0.01,0.08,0.07,0.48,0.01,0.05c0.03,0.21,0.05,0.41,0.08,0.62c0.07,0.51,0.13,1.03,0.23,1.53c0.18,0.88,0.5,1.76,1,2.51
					c0.82,1.22,2.08,2.23,3.63,1.91c0.5-0.1,0.98-0.27,1.47-0.41c-1.03-0.58-2.05-1.16-3.08-1.75c0.96,5.2,5.05,9.33,10,10.92
					c2.74,0.87,5.68,0.93,8.48,0.4c1.25-0.24,2.5-0.63,3.6-1.27c0.98-0.57,1.76-1.36,2.64-2.06c-0.59,0.24-1.18,0.49-1.77,0.73
					c0.06-0.01,0.12-0.01,0.18-0.02c-0.42-0.11-0.84-0.23-1.26-0.34c1.84,0.8,3.72,1.42,5.73,1.6c2.67,0.23,4.98-0.94,6.91-2.7
					c1.88-1.72,3.3-3.98,4.55-6.18c1.52-2.64,2.6-5.39,2.91-8.44c-1.25,0.72-2.51,1.44-3.76,2.16c0.63,0.44,1.26,0.87,1.88,1.32
					c-0.58-0.42,0.27,0.24,0.54,0.4c0.35,0.2,0.74,0.38,1.13,0.48c0.91,0.25,1.87,0.26,2.79,0.06c3.87-0.81,5.51-4.56,5.6-8.17
					c0.08-3.37-0.23-7.45-2.77-9.95c-2.79-2.75-6.89-2.4-10.43-1.87c0.94,1.22,1.88,2.45,2.82,3.67c2.13-2.77,4.39-5.29,4.09-9.08
					c-0.46-5.85-6.48-9.93-12.09-7.87c0.81,1.39,1.62,2.79,2.43,4.18c1.47-1.2,1.3-3.8,1.32-5.59c0.02-2.12-0.26-4.23-1.13-6.17
					c-1.68-3.76-5.39-5.61-9.31-6.07c-3.77-0.45-8.19,0.25-11.45,2.29c-3.5,2.2-5.86,6.52-4.42,10.65c0.45,1.27,1.71,2.12,3.08,1.75
					c1.24-0.34,2.19-1.8,1.75-3.08c-0.82-2.34,0.8-4.33,2.81-5.39c2.21-1.17,5.05-1.47,7.51-1.28c2.13,0.16,4.35,1.01,5.39,2.99
					c1.22,2.34,0.78,5.35,0.53,7.86c0.24-0.59,0.49-1.18,0.73-1.77c-0.11,0.09-0.23,0.19-0.34,0.28c-1.91,1.57,0.14,5.02,2.43,4.18
					c3.09-1.13,6.4,1.13,5.7,4.58c-0.38,1.86-2.23,3.57-3.35,5.03c-0.59,0.77-0.35,2.09,0.2,2.78c0.68,0.85,1.59,1.05,2.63,0.9
					c1.66-0.25,4.2-0.68,5.57,0.59c1.44,1.33,1.31,4.22,1.31,6c0,0.99-0.02,2.23-0.65,3.07c-0.15,0.2-0.4,0.42-0.71,0.55
					c-0.01,0-0.8,0.14-0.46,0.14c0.17,0-0.36-0.16-0.18-0.03c0.22,0.16-0.31-0.23-0.49-0.37c-0.16-0.12-0.33-0.23-0.49-0.35
					c-0.48-0.34-0.96-0.67-1.44-1.01c-1.71-1.2-3.59,0.46-3.76,2.16c-0.23,2.19-1.25,4.23-2.34,6.1c-1.03,1.78-2.13,3.57-3.66,4.97
					c-1.28,1.17-2.41,1.47-4.06,1.11c-0.78-0.17-1.54-0.42-2.29-0.7c-0.14-0.05-0.27-0.1-0.4-0.16c0.33,0.14,0.38,0.16,0.17,0.07
					c-0.61-0.26-1.12-0.39-1.77-0.28c-0.99,0.18-1.48,0.8-2.21,1.39c-0.66,0.55-1.41,0.89-2.23,1.11c-2.03,0.55-4.22,0.56-6.25,0.02
					c-3.68-0.99-6.43-3.85-7.12-7.6c-0.24-1.33-1.86-2.08-3.08-1.75c-0.49,0.14-0.98,0.27-1.47,0.41c0.64,0.08,1.28,0.17,1.93,0.25
					c0.14,0.1-0.07-0.09-0.04-0.06c-0.07-0.08-0.14-0.22-0.17-0.31c0.02,0.05,0.12,0.31,0.03,0.03c-0.09-0.27-0.16-0.56-0.21-0.84
					c-0.02-0.12-0.04-0.25-0.06-0.37c-0.07-0.42,0.04,0.34-0.01-0.08c-0.18-1.31-0.25-2.67-0.95-3.84c-1.61-2.7-5.01-1.65-7.14-2.82
					c-1.8-0.99-2.97-2.8-3.58-4.72c-0.17-0.52-0.3-1.04-0.42-1.57c-0.05-0.24-0.09-0.47-0.14-0.71c-0.02-0.12-0.04-0.23-0.06-0.35
					c0.07,0.49,0-0.03-0.01-0.13c-0.09-1.12-0.14-2.22,0.13-3.32c0.73-2.9,3.07-5.65,6.22-5.62c1.13,0.01,2.08-0.79,2.41-1.84
					c0.39-1.23,1.14-2.72,0.85-4.03c-0.45-2.07-0.29-3.73,0.93-5.55c2.75-4.1,8.38-4.3,12.79-3.73c1.34,0.17,2.5-1.27,2.5-2.5
					C78.12,390.95,76.96,390.12,75.62,389.95L75.62,389.95z"/>
			</g>
		</g>
		<g>
			<path class="st1" d="M65.33,406.74c-1.99,4.55-1.73,11.65-1.82,15.54c0.08,1.17,0.94,2.64,2.01,3.08
				c0.89,0.44,1.69,0.53,2.78,0.54c2.4,0.01,4.65-1.31,5.68-3.47c0.56-1.19,0.9-2.48,1.26-3.64c0.36-1.66,0.97-4.21,1.22-6.81
				C73.02,409.5,69.34,407.44,65.33,406.74z"/>
			<path class="st2" d="M73.6,431.62c-0.62,0.06-1.05,0.64-0.92,1.25c0.15,0.71,0.46,1.59,1.11,2.41c1.48,1.86,3.71,2.17,4.88,2.19
				c0.44,0.01,0.87-0.18,1.14-0.53c1.88-2.39,4.6-4.26,7.66-5.82c0.47-0.24,0.25-0.95-0.27-0.89
				C82.67,430.69,78.13,431.16,73.6,431.62z"/>
			<path class="st0" d="M72.81,416.07c0.27,2.49-2.98,3.69-3.62,0.94c-0.45-1.33,0.57-2.88,1.92-2.99
				C71.94,414.43,72.98,415.01,72.81,416.07z"/>
		</g>
		<g>
			<path class="st1" d="M92.46,407.71c1.99,4.55,1.73,11.65,1.82,15.54c-0.08,1.17-0.94,2.64-2.01,3.08
				c-1.13,0.56-2.31,0.68-3.44,0.31c-0.51-0.17-1.05-0.24-1.58-0.33c-2.73-0.49-3.97-4.19-4.7-6.55c-0.36-1.66-0.97-4.21-1.22-6.81
				C84.78,410.47,88.46,408.41,92.46,407.71z"/>
			<path class="st0" d="M84.99,417.04c-0.27,2.49,2.98,3.69,3.62,0.94c0.45-1.33-0.57-2.88-1.92-2.99
				C85.86,415.4,84.82,415.98,84.99,417.04z"/>
		</g>
	</g>
	<g>
		<g>
			<path class="st0" d="M-306.97,346.81c-4.05-0.55-8.41-0.27-11.86,1.92c-3.45,2.19-5.65,6.68-4.27,10.52l-0.85,2.7
				c-4.94-0.17-8.94,4.91-8.94,9.85c0,4.45,2.09,12.32,10.14,12.32c3.41,0,1.07,5.38,3.95,7.2l1.47-0.41
				c0.58,3.5,2.98,6.59,6.11,8.27c3.13,1.67,6.91,1.97,10.34,1.07c1.43-0.38,2.28-0.89,3.43-1.83c0.15-0.13,0.49-0.51,0.68-0.62
				c0.06-0.03,0.12-0.05,0.18-0.02c0.84,0.37,4.69,1.96,7.03,0.97c2.65-1.11,4.44-3.59,5.95-6.03c1.62-2.62,3.1-5.44,3.36-8.5
				l1.94,1.36c1.49,1.42,4.16,0.54,5.25-1.2c1.09-1.74,1.05-3.94,0.93-5.99c-0.13-2.19-0.41-4.58-1.98-6.1
				c-2.02-1.95-5.23-1.65-8-1.23l2.55-3.3c1.68-2.28,1.64-5.67-0.09-7.91c-1.73-2.24-5-3.13-7.63-2.07l0.34-0.28
				c0.36-3.47,0.62-7.31-1.49-10.09c-2.36-3.11-6.85-3.67-10.72-3.12c-2.51,0.36-5.06,1.13-6.94,2.83c-1.88,1.7-2.93,4.51-2,6.87"/>
			<g>
				<path d="M-306.97,344.31c-4.92-0.64-10.25-0.06-14.26,3.09c-3.68,2.88-5.79,7.95-4.28,12.52c0-0.44,0-0.89,0-1.33
					c-0.28,0.9-0.57,1.8-0.85,2.7c0.8-0.61,1.61-1.22,2.41-1.84c-4.38-0.04-8.24,2.85-10.08,6.72c-1.55,3.25-1.62,6.77-0.78,10.22
					c0.78,3.21,2.47,6.17,5.15,8.14c1.43,1.05,3.14,1.68,4.89,1.93c0.56,0.08,1.11,0.14,1.67,0.16c-0.11,0,0.59,0.03,0.6,0.02
					c-0.06,0.07-0.4-0.06-0.46-0.11c-0.19-0.14-0.22-0.25-0.37-0.39c0.24,0.23,0.05,0.11,0-0.08c0.08,0.35,0.19,0.7,0.26,1.06
					c0.01,0.08,0.07,0.48,0.01,0.05c0.03,0.21,0.05,0.41,0.08,0.62c0.07,0.51,0.13,1.03,0.23,1.53c0.18,0.88,0.5,1.76,1,2.51
					c0.82,1.22,2.08,2.23,3.63,1.91c0.5-0.1,0.98-0.27,1.47-0.41c-1.03-0.58-2.05-1.16-3.08-1.75c0.96,5.2,5.05,9.33,10,10.92
					c2.74,0.87,5.68,0.93,8.48,0.4c1.25-0.24,2.5-0.63,3.6-1.27c0.98-0.57,1.76-1.36,2.64-2.06c-0.59,0.24-1.18,0.49-1.77,0.73
					c0.06-0.01,0.12-0.01,0.18-0.02c-0.42-0.11-0.84-0.23-1.26-0.34c1.84,0.8,3.72,1.42,5.73,1.6c2.67,0.23,4.98-0.94,6.91-2.7
					c1.88-1.72,3.3-3.98,4.55-6.18c1.52-2.64,2.6-5.39,2.91-8.44c-1.25,0.72-2.51,1.44-3.76,2.16c0.63,0.44,1.26,0.87,1.88,1.32
					c-0.58-0.42,0.27,0.24,0.54,0.4c0.35,0.2,0.74,0.38,1.13,0.48c0.91,0.25,1.87,0.26,2.79,0.06c3.87-0.81,5.51-4.56,5.6-8.17
					c0.08-3.37-0.23-7.45-2.77-9.95c-2.79-2.75-6.89-2.4-10.43-1.87c0.94,1.22,1.88,2.45,2.82,3.67c2.13-2.77,4.39-5.29,4.09-9.08
					c-0.46-5.85-6.48-9.93-12.09-7.87c0.81,1.39,1.62,2.79,2.43,4.18c1.47-1.2,1.3-3.8,1.32-5.59c0.02-2.12-0.26-4.23-1.13-6.17
					c-1.68-3.76-5.39-5.61-9.31-6.07c-3.77-0.45-8.19,0.25-11.45,2.29c-3.5,2.2-5.86,6.52-4.42,10.65c0.45,1.27,1.71,2.12,3.08,1.75
					c1.24-0.34,2.19-1.8,1.75-3.08c-0.82-2.34,0.8-4.33,2.81-5.39c2.21-1.17,5.05-1.47,7.51-1.28c2.13,0.16,4.35,1.01,5.39,2.99
					c1.22,2.34,0.78,5.35,0.53,7.86c0.24-0.59,0.49-1.18,0.73-1.77c-0.11,0.09-0.23,0.19-0.34,0.28c-1.91,1.57,0.14,5.02,2.43,4.18
					c3.09-1.13,6.4,1.13,5.7,4.58c-0.38,1.86-2.23,3.57-3.35,5.03c-0.59,0.77-0.35,2.09,0.2,2.78c0.68,0.85,1.59,1.05,2.63,0.9
					c1.66-0.25,4.2-0.68,5.57,0.59c1.44,1.33,1.31,4.22,1.31,6c0,0.99-0.02,2.23-0.65,3.07c-0.15,0.2-0.4,0.42-0.71,0.55
					c-0.01,0-0.8,0.14-0.46,0.14c0.17,0-0.36-0.16-0.18-0.03c0.22,0.16-0.31-0.23-0.49-0.37c-0.16-0.12-0.33-0.23-0.49-0.35
					c-0.48-0.34-0.96-0.67-1.44-1.01c-1.71-1.2-3.59,0.46-3.76,2.16c-0.23,2.19-1.25,4.23-2.34,6.1c-1.03,1.78-2.13,3.57-3.66,4.97
					c-1.28,1.17-2.41,1.47-4.06,1.11c-0.78-0.17-1.54-0.42-2.29-0.7c-0.14-0.05-0.27-0.1-0.4-0.16c0.33,0.14,0.38,0.16,0.17,0.07
					c-0.61-0.26-1.12-0.39-1.77-0.28c-0.99,0.18-1.48,0.8-2.21,1.39c-0.66,0.55-1.41,0.89-2.23,1.11c-2.03,0.55-4.22,0.56-6.25,0.02
					c-3.68-0.99-6.43-3.85-7.12-7.6c-0.24-1.33-1.86-2.08-3.08-1.75c-0.49,0.14-0.98,0.27-1.47,0.41c0.64,0.08,1.28,0.17,1.93,0.25
					c0.14,0.1-0.07-0.09-0.04-0.06c-0.07-0.08-0.14-0.22-0.17-0.31c0.02,0.05,0.12,0.31,0.03,0.03c-0.09-0.27-0.16-0.56-0.21-0.84
					c-0.02-0.12-0.04-0.25-0.06-0.37c-0.07-0.42,0.04,0.34-0.01-0.08c-0.18-1.31-0.25-2.67-0.95-3.84c-1.61-2.7-5.01-1.65-7.14-2.82
					c-1.8-0.99-2.97-2.8-3.58-4.72c-0.17-0.52-0.3-1.04-0.42-1.57c-0.05-0.24-0.09-0.47-0.14-0.71c-0.02-0.12-0.04-0.23-0.06-0.35
					c0.07,0.49,0-0.03-0.01-0.13c-0.09-1.12-0.14-2.22,0.13-3.32c0.73-2.9,3.07-5.65,6.22-5.62c1.13,0.01,2.08-0.79,2.41-1.84
					c0.39-1.23,1.14-2.72,0.85-4.03c-0.45-2.07-0.29-3.73,0.93-5.55c2.75-4.1,8.38-4.3,12.79-3.73c1.34,0.17,2.5-1.27,2.5-2.5
					C-304.47,345.31-305.62,344.48-306.97,344.31L-306.97,344.31z"/>
			</g>
		</g>
		<g>
			<path class="st1" d="M-317.25,361.1c-1.99,4.55-1.73,11.65-1.82,15.54c0.08,1.17,0.94,2.64,2.01,3.08
				c0.89,0.44,1.69,0.53,2.78,0.54c2.4,0.01,4.65-1.31,5.68-3.47c0.56-1.19,0.9-2.48,1.26-3.64c0.36-1.66,0.97-4.21,1.22-6.81
				C-309.57,363.86-313.25,361.8-317.25,361.1z"/>
			<path class="st2" d="M-308.99,385.98c-0.62,0.06-1.05,0.64-0.92,1.25c0.15,0.71,0.46,1.59,1.11,2.41
				c1.48,1.86,3.71,2.17,4.88,2.19c0.44,0.01,0.87-0.18,1.14-0.53c1.88-2.39,4.6-4.26,7.66-5.82c0.47-0.24,0.25-0.95-0.27-0.89
				C-299.91,385.05-304.45,385.52-308.99,385.98z"/>
			<path class="st0" d="M-309.78,370.44c0.27,2.49-2.98,3.69-3.62,0.94c-0.45-1.33,0.57-2.88,1.92-2.99
				C-310.65,368.8-309.6,369.37-309.78,370.44z"/>
		</g>
		<g>
			<path class="st1" d="M-290.12,362.07c1.99,4.55,1.73,11.65,1.82,15.54c-0.08,1.17-0.94,2.64-2.01,3.08
				c-1.13,0.56-2.31,0.68-3.44,0.31c-0.51-0.17-1.05-0.24-1.58-0.33c-2.73-0.49-3.97-4.19-4.7-6.55c-0.36-1.66-0.97-4.21-1.22-6.81
				C-297.8,364.83-294.12,362.77-290.12,362.07z"/>
			<path class="st0" d="M-297.59,371.4c-0.27,2.49,2.98,3.69,3.62,0.94c0.45-1.33-0.57-2.88-1.92-2.99
				C-296.72,369.77-297.77,370.34-297.59,371.4z"/>
		</g>
	</g>
	<g>
		<g>
			<path class="st0" d="M107.25,259.07c-4.05-0.55-8.41-0.27-11.86,1.92c-3.45,2.19-5.65,6.68-4.27,10.52l-0.85,2.7
				c-4.94-0.17-8.94,4.91-8.94,9.85c0,4.45,2.09,12.32,10.14,12.32c3.41,0,1.07,5.38,3.95,7.2l1.47-0.41
				c0.58,3.5,2.98,6.59,6.11,8.27s6.91,1.97,10.34,1.07c1.43-0.38,2.28-0.89,3.43-1.83c0.15-0.13,0.49-0.51,0.68-0.62
				c0.06-0.03,0.12-0.05,0.18-0.02c0.84,0.37,4.69,1.96,7.03,0.97c2.65-1.11,4.44-3.59,5.95-6.03c1.62-2.62,3.1-5.44,3.36-8.5
				l1.94,1.36c1.49,1.42,4.16,0.54,5.25-1.2s1.05-3.94,0.93-5.99c-0.13-2.19-0.41-4.58-1.98-6.1c-2.02-1.95-5.23-1.65-8-1.23
				l2.55-3.3c1.68-2.28,1.64-5.67-0.09-7.91c-1.73-2.24-5-3.13-7.63-2.07l0.34-0.28c0.36-3.47,0.62-7.31-1.49-10.09
				c-2.36-3.11-6.85-3.67-10.72-3.12c-2.51,0.36-5.06,1.13-6.94,2.83c-1.88,1.7-2.93,4.51-2,6.87"/>
			<g>
				<path d="M107.25,256.57c-4.92-0.64-10.25-0.06-14.26,3.09c-3.68,2.88-5.79,7.95-4.28,12.52c0-0.44,0-0.89,0-1.33
					c-0.28,0.9-0.57,1.8-0.85,2.7c0.8-0.61,1.61-1.22,2.41-1.84c-4.38-0.04-8.24,2.85-10.08,6.72c-1.55,3.25-1.62,6.77-0.78,10.22
					c0.78,3.21,2.47,6.17,5.15,8.14c1.43,1.05,3.14,1.68,4.89,1.93c0.56,0.08,1.11,0.14,1.67,0.16c-0.11,0,0.59,0.03,0.6,0.02
					c-0.06,0.07-0.4-0.06-0.46-0.11c-0.19-0.14-0.22-0.25-0.37-0.39c0.24,0.23,0.05,0.11,0-0.08c0.08,0.35,0.19,0.7,0.26,1.06
					c0.01,0.08,0.07,0.48,0.01,0.05c0.03,0.21,0.05,0.41,0.08,0.62c0.07,0.51,0.13,1.03,0.23,1.53c0.18,0.88,0.5,1.76,1,2.51
					c0.82,1.22,2.08,2.23,3.63,1.91c0.5-0.1,0.98-0.27,1.47-0.41c-1.03-0.58-2.05-1.16-3.08-1.75c0.96,5.2,5.05,9.33,10,10.92
					c2.74,0.87,5.68,0.93,8.48,0.4c1.25-0.24,2.5-0.63,3.6-1.27c0.98-0.57,1.76-1.36,2.64-2.06c-0.59,0.24-1.18,0.49-1.77,0.73
					c0.06-0.01,0.12-0.01,0.18-0.02c-0.42-0.11-0.84-0.23-1.26-0.34c1.84,0.8,3.72,1.42,5.73,1.6c2.67,0.23,4.98-0.94,6.91-2.7
					c1.88-1.72,3.3-3.98,4.55-6.18c1.52-2.64,2.6-5.39,2.91-8.44c-1.25,0.72-2.51,1.44-3.76,2.16c0.63,0.44,1.26,0.87,1.88,1.32
					c-0.58-0.42,0.27,0.24,0.54,0.4c0.35,0.2,0.74,0.38,1.13,0.48c0.91,0.25,1.87,0.26,2.79,0.06c3.87-0.81,5.51-4.56,5.6-8.17
					c0.08-3.37-0.23-7.45-2.77-9.95c-2.79-2.75-6.89-2.4-10.43-1.87c0.94,1.22,1.88,2.45,2.82,3.67c2.13-2.77,4.39-5.29,4.09-9.08
					c-0.46-5.85-6.48-9.93-12.09-7.87c0.81,1.39,1.62,2.79,2.43,4.18c1.47-1.2,1.3-3.8,1.32-5.59c0.02-2.12-0.26-4.23-1.13-6.17
					c-1.68-3.76-5.39-5.61-9.31-6.07c-3.77-0.45-8.19,0.25-11.45,2.29c-3.5,2.2-5.86,6.52-4.42,10.65c0.45,1.27,1.71,2.12,3.08,1.75
					c1.24-0.34,2.19-1.8,1.75-3.08c-0.82-2.34,0.8-4.33,2.81-5.39c2.21-1.17,5.05-1.47,7.51-1.28c2.13,0.16,4.35,1.01,5.39,2.99
					c1.22,2.34,0.78,5.35,0.53,7.86c0.24-0.59,0.49-1.18,0.73-1.77c-0.11,0.09-0.23,0.19-0.34,0.28c-1.91,1.57,0.14,5.02,2.43,4.18
					c3.09-1.13,6.4,1.13,5.7,4.58c-0.38,1.86-2.23,3.57-3.35,5.03c-0.59,0.77-0.35,2.09,0.2,2.78c0.68,0.85,1.59,1.05,2.63,0.9
					c1.66-0.25,4.2-0.68,5.57,0.59c1.44,1.33,1.31,4.22,1.31,6c0,0.99-0.02,2.23-0.65,3.07c-0.15,0.2-0.4,0.42-0.71,0.55
					c-0.01,0-0.8,0.14-0.46,0.14c0.17,0-0.36-0.16-0.18-0.03c0.22,0.16-0.31-0.23-0.49-0.37c-0.16-0.12-0.33-0.23-0.49-0.35
					c-0.48-0.34-0.96-0.67-1.44-1.01c-1.71-1.2-3.59,0.46-3.76,2.16c-0.23,2.19-1.25,4.23-2.34,6.1c-1.03,1.78-2.13,3.57-3.66,4.97
					c-1.28,1.17-2.41,1.47-4.06,1.11c-0.78-0.17-1.54-0.42-2.29-0.7c-0.14-0.05-0.27-0.1-0.4-0.16c0.33,0.14,0.38,0.16,0.17,0.07
					c-0.61-0.26-1.12-0.39-1.77-0.28c-0.99,0.18-1.48,0.8-2.21,1.39c-0.66,0.55-1.41,0.89-2.23,1.11c-2.03,0.55-4.22,0.56-6.25,0.02
					c-3.68-0.99-6.43-3.85-7.12-7.6c-0.24-1.33-1.86-2.08-3.08-1.75c-0.49,0.14-0.98,0.27-1.47,0.41c0.64,0.08,1.28,0.17,1.93,0.25
					c0.14,0.1-0.07-0.09-0.04-0.06c-0.07-0.08-0.14-0.22-0.17-0.31c0.02,0.05,0.12,0.31,0.03,0.03c-0.09-0.27-0.16-0.56-0.21-0.84
					c-0.02-0.12-0.04-0.25-0.06-0.37c-0.07-0.42,0.04,0.34-0.01-0.08c-0.18-1.31-0.25-2.67-0.95-3.84c-1.61-2.7-5.01-1.65-7.14-2.82
					c-1.8-0.99-2.97-2.8-3.58-4.72c-0.17-0.52-0.3-1.04-0.42-1.57c-0.05-0.24-0.09-0.47-0.14-0.71c-0.02-0.12-0.04-0.23-0.06-0.35
					c0.07,0.49,0-0.03-0.01-0.13c-0.09-1.12-0.14-2.22,0.13-3.32c0.73-2.9,3.07-5.65,6.22-5.62c1.13,0.01,2.08-0.79,2.41-1.84
					c0.39-1.23,1.14-2.72,0.85-4.03c-0.45-2.07-0.29-3.73,0.93-5.55c2.75-4.1,8.38-4.3,12.79-3.73c1.34,0.17,2.5-1.27,2.5-2.5
					C109.75,257.57,108.6,256.74,107.25,256.57L107.25,256.57z"/>
			</g>
		</g>
		<g>
			<path class="st1" d="M96.97,273.36c-1.99,4.55-1.73,11.65-1.82,15.54c0.08,1.17,0.94,2.64,2.01,3.08
				c0.89,0.44,1.69,0.53,2.78,0.54c2.4,0.01,4.65-1.31,5.68-3.47c0.56-1.19,0.9-2.48,1.26-3.64c0.36-1.66,0.97-4.21,1.22-6.81
				C104.65,276.12,100.97,274.07,96.97,273.36z"/>
			<path class="st2" d="M105.23,298.24c-0.62,0.06-1.05,0.64-0.92,1.25c0.15,0.71,0.46,1.59,1.11,2.41
				c1.48,1.86,3.71,2.17,4.88,2.19c0.44,0.01,0.87-0.18,1.14-0.53c1.88-2.39,4.6-4.26,7.66-5.82c0.47-0.24,0.25-0.95-0.27-0.89
				C114.31,297.32,109.77,297.78,105.23,298.24z"/>
			<path class="st0" d="M104.44,282.7c0.27,2.49-2.98,3.69-3.62,0.94c-0.45-1.33,0.57-2.88,1.92-2.99
				C103.57,281.06,104.62,281.63,104.44,282.7z"/>
		</g>
		<g>
			<path class="st1" d="M124.1,274.33c1.99,4.55,1.73,11.65,1.82,15.54c-0.08,1.17-0.94,2.64-2.01,3.08
				c-1.13,0.56-2.31,0.68-3.44,0.31c-0.51-0.17-1.05-0.24-1.58-0.33c-2.73-0.49-3.97-4.19-4.7-6.55c-0.36-1.66-0.97-4.21-1.22-6.81
				C116.42,277.09,120.1,275.03,124.1,274.33z"/>
			<path class="st0" d="M116.63,283.67c-0.27,2.49,2.98,3.69,3.62,0.94c0.45-1.33-0.57-2.88-1.92-2.99
				C117.5,282.03,116.45,282.6,116.63,283.67z"/>
		</g>
	</g>
	<g>
		<g>
			<path class="st0" d="M244.65,202.42c-4.05-0.55-8.41-0.27-11.86,1.92c-3.45,2.19-5.65,6.68-4.27,10.52l-0.85,2.7
				c-4.94-0.17-8.94,4.91-8.94,9.85c0,4.45,2.09,12.32,10.14,12.32c3.41,0,1.07,5.38,3.95,7.2l1.47-0.41
				c0.58,3.5,2.98,6.59,6.11,8.27c3.13,1.67,6.91,1.97,10.34,1.07c1.43-0.38,2.28-0.89,3.43-1.83c0.15-0.13,0.49-0.51,0.68-0.62
				c0.06-0.03,0.12-0.05,0.18-0.02c0.84,0.37,4.69,1.96,7.03,0.97c2.65-1.11,4.44-3.59,5.95-6.03c1.62-2.62,3.1-5.44,3.36-8.5
				l1.94,1.36c1.49,1.42,4.16,0.54,5.25-1.2c1.09-1.74,1.05-3.94,0.93-5.99c-0.13-2.19-0.41-4.58-1.98-6.1
				c-2.02-1.95-5.23-1.65-8-1.23l2.55-3.3c1.68-2.28,1.64-5.67-0.09-7.91c-1.73-2.24-5-3.13-7.63-2.07l0.34-0.28
				c0.36-3.47,0.62-7.31-1.49-10.09c-2.36-3.11-6.85-3.67-10.72-3.12c-2.51,0.36-5.06,1.13-6.94,2.83c-1.88,1.7-2.93,4.51-2,6.87"/>
			<g>
				<path d="M244.65,199.92c-4.92-0.64-10.25-0.06-14.26,3.09c-3.68,2.88-5.79,7.95-4.28,12.52c0-0.44,0-0.89,0-1.33
					c-0.28,0.9-0.57,1.8-0.85,2.7c0.8-0.61,1.61-1.22,2.41-1.84c-4.38-0.04-8.24,2.85-10.08,6.72c-1.55,3.25-1.62,6.77-0.78,10.22
					c0.78,3.21,2.47,6.17,5.15,8.14c1.43,1.05,3.14,1.68,4.89,1.93c0.56,0.08,1.11,0.14,1.67,0.16c-0.11,0,0.59,0.03,0.6,0.02
					c-0.06,0.07-0.4-0.06-0.46-0.11c-0.19-0.14-0.22-0.25-0.37-0.39c0.24,0.23,0.05,0.11,0-0.08c0.08,0.35,0.19,0.7,0.26,1.06
					c0.01,0.08,0.07,0.48,0.01,0.05c0.03,0.21,0.05,0.41,0.08,0.62c0.07,0.51,0.13,1.03,0.23,1.53c0.18,0.88,0.5,1.76,1,2.51
					c0.82,1.22,2.08,2.23,3.63,1.91c0.5-0.1,0.98-0.27,1.47-0.41c-1.03-0.58-2.05-1.16-3.08-1.75c0.96,5.2,5.05,9.33,10,10.92
					c2.74,0.87,5.68,0.93,8.48,0.4c1.25-0.24,2.5-0.63,3.6-1.27c0.98-0.57,1.76-1.36,2.64-2.06c-0.59,0.24-1.18,0.49-1.77,0.73
					c0.06-0.01,0.12-0.01,0.18-0.02c-0.42-0.11-0.84-0.23-1.26-0.34c1.84,0.8,3.72,1.42,5.73,1.6c2.67,0.23,4.98-0.94,6.91-2.7
					c1.88-1.72,3.3-3.98,4.55-6.18c1.52-2.64,2.6-5.39,2.91-8.44c-1.25,0.72-2.51,1.44-3.76,2.16c0.63,0.44,1.26,0.87,1.88,1.32
					c-0.58-0.42,0.27,0.24,0.54,0.4c0.35,0.2,0.74,0.38,1.13,0.48c0.91,0.25,1.87,0.26,2.79,0.06c3.87-0.81,5.51-4.56,5.6-8.17
					c0.08-3.37-0.23-7.45-2.77-9.95c-2.79-2.75-6.89-2.4-10.43-1.87c0.94,1.22,1.88,2.45,2.82,3.67c2.13-2.77,4.39-5.29,4.09-9.08
					c-0.46-5.85-6.48-9.93-12.09-7.87c0.81,1.39,1.62,2.79,2.43,4.18c1.47-1.2,1.3-3.8,1.32-5.59c0.02-2.12-0.26-4.23-1.13-6.17
					c-1.68-3.76-5.39-5.61-9.31-6.07c-3.77-0.45-8.19,0.25-11.45,2.29c-3.5,2.2-5.86,6.52-4.42,10.65c0.45,1.27,1.71,2.12,3.08,1.75
					c1.24-0.34,2.19-1.8,1.75-3.08c-0.82-2.34,0.8-4.33,2.81-5.39c2.21-1.17,5.05-1.47,7.51-1.28c2.13,0.16,4.35,1.01,5.39,2.99
					c1.22,2.34,0.78,5.35,0.53,7.86c0.24-0.59,0.49-1.18,0.73-1.77c-0.11,0.09-0.23,0.19-0.34,0.28c-1.91,1.57,0.14,5.02,2.43,4.18
					c3.09-1.13,6.4,1.13,5.7,4.58c-0.38,1.86-2.23,3.57-3.35,5.03c-0.59,0.77-0.35,2.09,0.2,2.78c0.68,0.85,1.59,1.05,2.63,0.9
					c1.66-0.25,4.2-0.68,5.57,0.59c1.44,1.33,1.31,4.22,1.31,6c0,0.99-0.02,2.23-0.65,3.07c-0.15,0.2-0.4,0.42-0.71,0.55
					c-0.01,0-0.8,0.14-0.46,0.14c0.17,0-0.36-0.16-0.18-0.03c0.22,0.16-0.31-0.23-0.49-0.37c-0.16-0.12-0.33-0.23-0.49-0.35
					c-0.48-0.34-0.96-0.67-1.44-1.01c-1.71-1.2-3.59,0.46-3.76,2.16c-0.23,2.19-1.25,4.23-2.34,6.1c-1.03,1.78-2.13,3.57-3.66,4.97
					c-1.28,1.17-2.41,1.47-4.06,1.11c-0.78-0.17-1.54-0.42-2.29-0.7c-0.14-0.05-0.27-0.1-0.4-0.16c0.33,0.14,0.38,0.16,0.17,0.07
					c-0.61-0.26-1.12-0.39-1.77-0.28c-0.99,0.18-1.48,0.8-2.21,1.39c-0.66,0.55-1.41,0.89-2.23,1.11c-2.03,0.55-4.22,0.56-6.25,0.02
					c-3.68-0.99-6.43-3.85-7.12-7.6c-0.24-1.33-1.86-2.08-3.08-1.75c-0.49,0.14-0.98,0.27-1.47,0.41c0.64,0.08,1.28,0.17,1.93,0.25
					c0.14,0.1-0.07-0.09-0.04-0.06c-0.07-0.08-0.14-0.22-0.17-0.31c0.02,0.05,0.12,0.31,0.03,0.03c-0.09-0.27-0.16-0.56-0.21-0.84
					c-0.02-0.12-0.04-0.25-0.06-0.37c-0.07-0.42,0.04,0.34-0.01-0.08c-0.18-1.31-0.25-2.67-0.95-3.84c-1.61-2.7-5.01-1.65-7.14-2.82
					c-1.8-0.99-2.97-2.8-3.58-4.72c-0.17-0.52-0.3-1.04-0.42-1.57c-0.05-0.24-0.09-0.47-0.14-0.71c-0.02-0.12-0.04-0.23-0.06-0.35
					c0.07,0.49,0-0.03-0.01-0.13c-0.09-1.12-0.14-2.22,0.13-3.32c0.73-2.9,3.07-5.65,6.22-5.62c1.13,0.01,2.08-0.79,2.41-1.84
					c0.39-1.23,1.14-2.72,0.85-4.03c-0.45-2.07-0.29-3.73,0.93-5.55c2.75-4.1,8.38-4.3,12.79-3.73c1.34,0.17,2.5-1.27,2.5-2.5
					C247.15,200.93,245.99,200.1,244.65,199.92L244.65,199.92z"/>
			</g>
		</g>
		<g>
			<path class="st1" d="M234.36,216.72c-1.99,4.55-1.73,11.65-1.82,15.54c0.08,1.17,0.94,2.64,2.01,3.08
				c0.89,0.44,1.69,0.53,2.78,0.54c2.4,0.01,4.65-1.31,5.68-3.47c0.56-1.19,0.9-2.48,1.26-3.64c0.36-1.66,0.97-4.21,1.22-6.81
				C242.05,219.48,238.37,217.42,234.36,216.72z"/>
			<path class="st2" d="M242.63,241.6c-0.62,0.06-1.05,0.64-0.92,1.25c0.15,0.71,0.46,1.59,1.11,2.41c1.48,1.86,3.71,2.17,4.88,2.19
				c0.44,0.01,0.87-0.18,1.14-0.53c1.88-2.39,4.6-4.26,7.66-5.82c0.47-0.24,0.25-0.95-0.27-0.89
				C251.7,240.67,247.16,241.13,242.63,241.6z"/>
			<path class="st0" d="M241.84,226.05c0.27,2.49-2.98,3.69-3.62,0.94c-0.45-1.33,0.57-2.88,1.92-2.99
				C240.97,224.41,242.01,224.98,241.84,226.05z"/>
		</g>
		<g>
			<path class="st1" d="M261.49,217.69c1.99,4.55,1.73,11.65,1.82,15.54c-0.08,1.17-0.94,2.64-2.01,3.08
				c-1.13,0.56-2.31,0.68-3.44,0.31c-0.51-0.17-1.05-0.24-1.58-0.33c-2.73-0.49-3.97-4.19-4.7-6.55c-0.36-1.66-0.97-4.21-1.22-6.81
				C253.81,220.45,257.49,218.39,261.49,217.69z"/>
			<path class="st0" d="M254.02,227.02c-0.27,2.49,2.98,3.69,3.62,0.94c0.45-1.33-0.57-2.88-1.92-2.99
				C254.89,225.38,253.85,225.95,254.02,227.02z"/>
		</g>
	</g>
	<g>
		<g>
			<path class="st0" d="M738.77,199.36c-4.05-0.55-8.41-0.27-11.86,1.92s-5.65,6.68-4.27,10.52l-0.85,2.7
				c-4.94-0.17-8.94,4.91-8.94,9.85c0,4.45,2.09,12.32,10.14,12.32c3.41,0,1.07,5.38,3.95,7.2l1.47-0.41
				c0.58,3.5,2.98,6.59,6.11,8.27c3.13,1.67,6.91,1.97,10.34,1.07c1.43-0.38,2.28-0.89,3.43-1.83c0.15-0.13,0.49-0.51,0.68-0.62
				c0.06-0.03,0.12-0.05,0.18-0.02c0.84,0.37,4.69,1.96,7.03,0.97c2.65-1.11,4.44-3.59,5.95-6.03c1.62-2.62,3.1-5.44,3.36-8.5
				l1.94,1.36c1.49,1.42,4.16,0.54,5.25-1.2c1.09-1.74,1.05-3.94,0.93-5.99c-0.13-2.19-0.41-4.58-1.98-6.1
				c-2.02-1.95-5.23-1.65-8-1.23l2.55-3.3c1.68-2.28,1.64-5.67-0.09-7.91c-1.73-2.24-5-3.13-7.63-2.07l0.34-0.28
				c0.36-3.47,0.62-7.31-1.49-10.09c-2.36-3.11-6.85-3.67-10.72-3.12c-2.51,0.36-5.06,1.13-6.94,2.83c-1.88,1.7-2.93,4.51-2,6.87"/>
			<g>
				<path d="M738.77,196.86c-4.92-0.64-10.25-0.06-14.26,3.09c-3.68,2.88-5.79,7.95-4.28,12.52c0-0.44,0-0.89,0-1.33
					c-0.28,0.9-0.57,1.8-0.85,2.7c0.8-0.61,1.61-1.22,2.41-1.84c-4.38-0.04-8.24,2.85-10.08,6.72c-1.55,3.25-1.62,6.77-0.78,10.22
					c0.78,3.21,2.47,6.17,5.15,8.14c1.43,1.05,3.14,1.68,4.89,1.93c0.56,0.08,1.11,0.14,1.67,0.16c-0.11,0,0.59,0.03,0.6,0.02
					c-0.06,0.07-0.4-0.06-0.46-0.11c-0.19-0.14-0.22-0.25-0.37-0.39c0.24,0.23,0.05,0.11,0-0.08c0.08,0.35,0.19,0.7,0.26,1.06
					c0.01,0.08,0.07,0.48,0.01,0.05c0.03,0.21,0.05,0.41,0.08,0.62c0.07,0.51,0.13,1.03,0.23,1.53c0.18,0.88,0.5,1.76,1,2.51
					c0.82,1.22,2.08,2.23,3.63,1.91c0.5-0.1,0.98-0.27,1.47-0.41c-1.03-0.58-2.05-1.16-3.08-1.75c0.96,5.2,5.05,9.33,10,10.92
					c2.74,0.87,5.68,0.93,8.48,0.4c1.25-0.24,2.5-0.63,3.6-1.27c0.98-0.57,1.76-1.36,2.64-2.06c-0.59,0.24-1.18,0.49-1.77,0.73
					c0.06-0.01,0.12-0.01,0.18-0.02c-0.42-0.11-0.84-0.23-1.26-0.34c1.84,0.8,3.72,1.42,5.73,1.6c2.67,0.23,4.98-0.94,6.91-2.7
					c1.88-1.72,3.3-3.98,4.55-6.18c1.52-2.64,2.6-5.39,2.91-8.44c-1.25,0.72-2.51,1.44-3.76,2.16c0.63,0.44,1.26,0.87,1.88,1.32
					c-0.58-0.42,0.27,0.24,0.54,0.4c0.35,0.2,0.74,0.38,1.13,0.48c0.91,0.25,1.87,0.26,2.79,0.06c3.87-0.81,5.51-4.56,5.6-8.17
					c0.08-3.37-0.23-7.45-2.77-9.95c-2.79-2.75-6.89-2.4-10.43-1.87c0.94,1.22,1.88,2.45,2.82,3.67c2.13-2.77,4.39-5.29,4.09-9.08
					c-0.46-5.85-6.48-9.93-12.09-7.87c0.81,1.39,1.62,2.79,2.43,4.18c1.47-1.2,1.3-3.8,1.32-5.59c0.02-2.12-0.26-4.23-1.13-6.17
					c-1.68-3.76-5.39-5.61-9.31-6.07c-3.77-0.45-8.19,0.25-11.45,2.29c-3.5,2.2-5.86,6.52-4.42,10.65c0.45,1.27,1.71,2.12,3.08,1.75
					c1.24-0.34,2.19-1.8,1.75-3.08c-0.82-2.34,0.8-4.33,2.81-5.39c2.21-1.17,5.05-1.47,7.51-1.28c2.13,0.16,4.35,1.01,5.39,2.99
					c1.22,2.34,0.78,5.35,0.53,7.86c0.24-0.59,0.49-1.18,0.73-1.77c-0.11,0.09-0.23,0.19-0.34,0.28c-1.91,1.57,0.14,5.02,2.43,4.18
					c3.09-1.13,6.4,1.13,5.7,4.58c-0.38,1.86-2.23,3.57-3.35,5.03c-0.59,0.77-0.35,2.09,0.2,2.78c0.68,0.85,1.59,1.05,2.63,0.9
					c1.66-0.25,4.2-0.68,5.57,0.59c1.44,1.33,1.31,4.22,1.31,6c0,0.99-0.02,2.23-0.65,3.07c-0.15,0.2-0.4,0.42-0.71,0.55
					c-0.01,0-0.8,0.14-0.46,0.14c0.17,0-0.36-0.16-0.18-0.03c0.22,0.16-0.31-0.23-0.49-0.37c-0.16-0.12-0.33-0.23-0.49-0.35
					c-0.48-0.34-0.96-0.67-1.44-1.01c-1.71-1.2-3.59,0.46-3.76,2.16c-0.23,2.19-1.25,4.23-2.34,6.1c-1.03,1.78-2.13,3.57-3.66,4.97
					c-1.28,1.17-2.41,1.47-4.06,1.11c-0.78-0.17-1.54-0.42-2.29-0.7c-0.14-0.05-0.27-0.1-0.4-0.16c0.33,0.14,0.38,0.16,0.17,0.07
					c-0.61-0.26-1.12-0.39-1.77-0.28c-0.99,0.18-1.48,0.8-2.21,1.39c-0.66,0.55-1.41,0.89-2.23,1.11c-2.03,0.55-4.22,0.56-6.25,0.02
					c-3.68-0.99-6.43-3.85-7.12-7.6c-0.24-1.33-1.86-2.08-3.08-1.75c-0.49,0.14-0.98,0.27-1.47,0.41c0.64,0.08,1.28,0.17,1.93,0.25
					c0.14,0.1-0.07-0.09-0.04-0.06c-0.07-0.08-0.14-0.22-0.17-0.31c0.02,0.05,0.12,0.31,0.03,0.03c-0.09-0.27-0.16-0.56-0.21-0.84
					c-0.02-0.12-0.04-0.25-0.06-0.37c-0.07-0.42,0.04,0.34-0.02-0.08c-0.18-1.31-0.25-2.67-0.95-3.84c-1.61-2.7-5.01-1.65-7.14-2.82
					c-1.8-0.99-2.97-2.8-3.58-4.72c-0.17-0.52-0.3-1.04-0.42-1.57c-0.05-0.24-0.09-0.47-0.14-0.71c-0.02-0.12-0.04-0.23-0.06-0.35
					c0.07,0.49,0-0.03-0.01-0.13c-0.09-1.12-0.14-2.22,0.13-3.32c0.73-2.9,3.07-5.65,6.22-5.62c1.13,0.01,2.08-0.79,2.41-1.84
					c0.39-1.23,1.14-2.72,0.85-4.03c-0.45-2.07-0.29-3.73,0.93-5.55c2.75-4.1,8.38-4.3,12.79-3.73c1.34,0.17,2.5-1.27,2.5-2.5
					C741.27,197.86,740.12,197.03,738.77,196.86L738.77,196.86z"/>
			</g>
		</g>
		<g>
			<path class="st1" d="M728.49,213.65c-1.99,4.55-1.73,11.65-1.82,15.54c0.08,1.17,0.94,2.64,2.01,3.08
				c0.89,0.44,1.69,0.53,2.78,0.54c2.4,0.01,4.65-1.31,5.68-3.47c0.56-1.19,0.9-2.48,1.26-3.64c0.36-1.66,0.97-4.21,1.22-6.81
				C736.17,216.42,732.49,214.36,728.49,213.65z"/>
			<path class="st2" d="M736.75,238.53c-0.62,0.06-1.05,0.64-0.92,1.25c0.15,0.71,0.46,1.59,1.11,2.41
				c1.48,1.86,3.71,2.17,4.88,2.19c0.44,0.01,0.87-0.18,1.14-0.53c1.88-2.39,4.6-4.26,7.66-5.82c0.47-0.24,0.25-0.95-0.27-0.89
				C745.83,237.61,741.29,238.07,736.75,238.53z"/>
			<path class="st0" d="M735.96,222.99c0.27,2.49-2.98,3.69-3.62,0.94c-0.45-1.33,0.57-2.88,1.92-2.99
				C735.09,221.35,736.14,221.92,735.96,222.99z"/>
		</g>
		<g>
			<path class="st1" d="M755.62,214.62c1.99,4.55,1.73,11.65,1.82,15.54c-0.08,1.17-0.94,2.64-2.01,3.08
				c-1.13,0.56-2.31,0.68-3.44,0.31c-0.51-0.17-1.05-0.24-1.58-0.33c-2.73-0.49-3.97-4.19-4.7-6.55c-0.36-1.66-0.97-4.21-1.22-6.81
				C747.94,217.38,751.62,215.33,755.62,214.62z"/>
			<path class="st0" d="M748.15,223.96c-0.27,2.49,2.98,3.69,3.62,0.94c0.45-1.33-0.57-2.88-1.92-2.99
				C749.02,222.32,747.98,222.89,748.15,223.96z"/>
		</g>
	</g>
	<g>
		<g>
			<path class="st0" d="M870.24,133.53c-4.05-0.55-8.41-0.27-11.86,1.92s-5.65,6.68-4.27,10.52l-0.85,2.7
				c-4.94-0.17-8.94,4.91-8.94,9.85c0,4.45,2.09,12.32,10.14,12.32c3.41,0,1.07,5.38,3.95,7.2l1.47-0.41
				c0.58,3.5,2.98,6.59,6.11,8.27c3.13,1.67,6.91,1.97,10.34,1.07c1.43-0.38,2.28-0.89,3.43-1.83c0.15-0.13,0.49-0.51,0.68-0.62
				c0.06-0.03,0.12-0.05,0.18-0.02c0.84,0.37,4.69,1.96,7.03,0.97c2.65-1.11,4.44-3.59,5.95-6.03c1.62-2.62,3.1-5.44,3.36-8.5
				l1.94,1.36c1.49,1.42,4.16,0.54,5.25-1.2s1.05-3.94,0.93-5.99c-0.13-2.19-0.41-4.58-1.98-6.1c-2.02-1.95-5.23-1.65-8-1.23
				l2.55-3.3c1.68-2.28,1.64-5.67-0.09-7.91c-1.73-2.24-5-3.13-7.63-2.07l0.34-0.28c0.36-3.47,0.62-7.31-1.49-10.09
				c-2.36-3.11-6.85-3.67-10.72-3.12c-2.51,0.36-5.06,1.13-6.94,2.83c-1.88,1.7-2.93,4.51-2,6.87"/>
			<g>
				<path d="M870.24,131.03c-4.92-0.64-10.25-0.06-14.26,3.09c-3.68,2.88-5.79,7.95-4.28,12.52c0-0.44,0-0.89,0-1.33
					c-0.28,0.9-0.57,1.8-0.85,2.7c0.8-0.61,1.61-1.22,2.41-1.84c-4.38-0.04-8.24,2.85-10.09,6.72c-1.55,3.25-1.62,6.77-0.78,10.22
					c0.78,3.21,2.47,6.17,5.15,8.14c1.43,1.05,3.14,1.68,4.89,1.93c0.56,0.08,1.11,0.14,1.67,0.16c-0.11,0,0.59,0.03,0.6,0.02
					c-0.06,0.07-0.4-0.06-0.46-0.11c-0.19-0.14-0.22-0.25-0.37-0.39c0.24,0.23,0.05,0.11,0-0.08c0.08,0.35,0.19,0.7,0.26,1.06
					c0.01,0.08,0.07,0.48,0.01,0.05c0.03,0.21,0.05,0.41,0.08,0.62c0.07,0.51,0.13,1.03,0.23,1.53c0.18,0.88,0.5,1.76,1,2.51
					c0.82,1.22,2.08,2.23,3.63,1.91c0.5-0.1,0.98-0.27,1.47-0.41c-1.03-0.58-2.05-1.16-3.08-1.75c0.96,5.2,5.05,9.33,10,10.92
					c2.74,0.87,5.68,0.93,8.48,0.4c1.25-0.24,2.5-0.63,3.6-1.27c0.98-0.57,1.76-1.36,2.64-2.06c-0.59,0.24-1.18,0.49-1.77,0.73
					c0.06-0.01,0.12-0.01,0.18-0.02c-0.42-0.11-0.84-0.23-1.26-0.34c1.84,0.8,3.72,1.42,5.73,1.6c2.67,0.23,4.98-0.94,6.91-2.7
					c1.88-1.72,3.3-3.98,4.55-6.18c1.52-2.64,2.6-5.39,2.91-8.44c-1.25,0.72-2.51,1.44-3.76,2.16c0.63,0.44,1.26,0.87,1.88,1.32
					c-0.58-0.42,0.27,0.24,0.54,0.4c0.35,0.2,0.74,0.38,1.13,0.48c0.91,0.25,1.87,0.26,2.79,0.06c3.87-0.81,5.51-4.56,5.6-8.17
					c0.08-3.37-0.23-7.45-2.77-9.95c-2.79-2.75-6.89-2.4-10.43-1.87c0.94,1.22,1.88,2.45,2.82,3.67c2.13-2.77,4.39-5.29,4.09-9.08
					c-0.46-5.85-6.48-9.93-12.09-7.87c0.81,1.39,1.62,2.79,2.43,4.18c1.47-1.2,1.3-3.8,1.32-5.59c0.02-2.12-0.26-4.23-1.13-6.17
					c-1.68-3.76-5.39-5.61-9.31-6.07c-3.77-0.45-8.19,0.25-11.45,2.29c-3.5,2.2-5.86,6.52-4.42,10.65c0.45,1.27,1.71,2.12,3.08,1.75
					c1.24-0.34,2.19-1.8,1.75-3.08c-0.82-2.34,0.8-4.33,2.81-5.39c2.21-1.17,5.05-1.47,7.51-1.28c2.13,0.16,4.35,1.01,5.39,2.99
					c1.22,2.34,0.78,5.35,0.53,7.86c0.24-0.59,0.49-1.18,0.73-1.77c-0.11,0.09-0.23,0.19-0.34,0.28c-1.91,1.57,0.14,5.02,2.43,4.18
					c3.09-1.13,6.4,1.13,5.7,4.58c-0.38,1.86-2.23,3.57-3.35,5.03c-0.59,0.77-0.35,2.09,0.2,2.78c0.68,0.85,1.59,1.05,2.63,0.9
					c1.66-0.25,4.2-0.68,5.57,0.59c1.44,1.33,1.31,4.22,1.31,6c0,0.99-0.02,2.23-0.65,3.07c-0.15,0.2-0.4,0.42-0.71,0.55
					c-0.01,0-0.8,0.14-0.46,0.14c0.17,0-0.36-0.16-0.18-0.03c0.22,0.16-0.31-0.23-0.49-0.37c-0.16-0.12-0.33-0.23-0.49-0.35
					c-0.48-0.34-0.96-0.67-1.44-1.01c-1.71-1.2-3.59,0.46-3.76,2.16c-0.23,2.19-1.25,4.23-2.34,6.1c-1.03,1.78-2.13,3.57-3.66,4.97
					c-1.28,1.17-2.41,1.47-4.06,1.11c-0.78-0.17-1.54-0.42-2.29-0.7c-0.14-0.05-0.27-0.1-0.4-0.16c0.33,0.14,0.38,0.16,0.17,0.07
					c-0.61-0.26-1.12-0.39-1.77-0.28c-0.99,0.18-1.48,0.8-2.21,1.39c-0.66,0.55-1.41,0.89-2.23,1.11c-2.03,0.55-4.22,0.56-6.25,0.02
					c-3.68-0.99-6.43-3.85-7.12-7.6c-0.24-1.33-1.86-2.08-3.08-1.75c-0.49,0.14-0.98,0.27-1.47,0.41c0.64,0.08,1.28,0.17,1.93,0.25
					c0.14,0.1-0.07-0.09-0.04-0.06c-0.07-0.08-0.14-0.22-0.17-0.31c0.02,0.05,0.12,0.31,0.03,0.03c-0.09-0.27-0.16-0.56-0.21-0.84
					c-0.02-0.12-0.04-0.25-0.06-0.37c-0.07-0.42,0.04,0.34-0.01-0.08c-0.18-1.31-0.25-2.67-0.95-3.84c-1.61-2.7-5.01-1.65-7.14-2.82
					c-1.8-0.99-2.97-2.8-3.58-4.72c-0.17-0.52-0.3-1.04-0.42-1.57c-0.05-0.24-0.09-0.47-0.14-0.71c-0.02-0.12-0.04-0.23-0.06-0.35
					c0.07,0.49,0-0.03-0.01-0.13c-0.09-1.12-0.14-2.22,0.13-3.32c0.73-2.9,3.07-5.65,6.22-5.62c1.13,0.01,2.08-0.79,2.41-1.84
					c0.39-1.23,1.14-2.72,0.85-4.03c-0.45-2.07-0.29-3.73,0.93-5.55c2.75-4.1,8.38-4.3,12.79-3.73c1.34,0.17,2.5-1.27,2.5-2.5
					C872.74,132.03,871.58,131.2,870.24,131.03L870.24,131.03z"/>
			</g>
		</g>
		<g>
			<path class="st1" d="M859.95,147.83c-1.99,4.55-1.73,11.65-1.82,15.54c0.08,1.17,0.94,2.64,2.01,3.08
				c0.89,0.44,1.69,0.53,2.78,0.54c2.4,0.01,4.65-1.31,5.68-3.47c0.56-1.19,0.9-2.48,1.26-3.64c0.36-1.66,0.97-4.21,1.22-6.81
				C867.64,150.59,863.96,148.53,859.95,147.83z"/>
			<path class="st2" d="M868.22,172.7c-0.62,0.06-1.05,0.64-0.92,1.25c0.15,0.71,0.46,1.59,1.11,2.41c1.48,1.86,3.71,2.17,4.88,2.19
				c0.44,0.01,0.87-0.18,1.14-0.53c1.88-2.39,4.6-4.26,7.66-5.82c0.47-0.24,0.25-0.95-0.27-0.89
				C877.29,171.78,872.75,172.24,868.22,172.7z"/>
			<path class="st0" d="M867.43,157.16c0.27,2.49-2.98,3.69-3.62,0.94c-0.45-1.33,0.57-2.88,1.92-2.99
				C866.56,155.52,867.6,156.09,867.43,157.16z"/>
		</g>
		<g>
			<path class="st1" d="M887.08,148.79c1.99,4.55,1.73,11.65,1.82,15.54c-0.08,1.17-0.94,2.64-2.01,3.08
				c-1.13,0.56-2.31,0.68-3.44,0.31c-0.51-0.17-1.05-0.24-1.58-0.33c-2.73-0.49-3.97-4.19-4.7-6.55c-0.36-1.66-0.97-4.21-1.22-6.81
				C879.4,151.55,883.08,149.5,887.08,148.79z"/>
			<path class="st0" d="M879.61,158.13c-0.27,2.49,2.98,3.69,3.62,0.94c0.45-1.33-0.57-2.88-1.92-2.99
				C880.48,156.49,879.44,157.06,879.61,158.13z"/>
		</g>
	</g>
	<g>
		<g>
			<path class="st0" d="M893.19,338.02c-4.05-0.55-8.41-0.27-11.86,1.92c-3.45,2.19-5.65,6.68-4.27,10.52l-0.85,2.7
				c-4.94-0.17-8.94,4.91-8.94,9.85c0,4.45,2.09,12.32,10.14,12.32c3.41,0,1.07,5.38,3.95,7.2l1.47-0.41
				c0.58,3.5,2.98,6.59,6.11,8.27c3.13,1.67,6.91,1.97,10.34,1.07c1.43-0.38,2.28-0.89,3.43-1.83c0.15-0.13,0.49-0.51,0.68-0.62
				c0.06-0.03,0.12-0.05,0.18-0.02c0.84,0.37,4.69,1.96,7.03,0.97c2.65-1.11,4.44-3.59,5.95-6.03c1.62-2.62,3.1-5.44,3.36-8.5
				l1.94,1.36c1.49,1.42,4.16,0.54,5.25-1.2c1.09-1.74,1.05-3.94,0.93-5.99c-0.13-2.19-0.41-4.58-1.98-6.1
				c-2.02-1.95-5.23-1.65-8-1.23l2.55-3.3c1.68-2.28,1.64-5.67-0.09-7.91c-1.73-2.24-5-3.13-7.63-2.07l0.34-0.28
				c0.36-3.47,0.62-7.31-1.49-10.09c-2.36-3.11-6.85-3.67-10.72-3.12c-2.51,0.36-5.06,1.13-6.94,2.83s-2.93,4.51-2,6.87"/>
			<g>
				<path d="M893.19,335.52c-4.92-0.64-10.25-0.06-14.26,3.09c-3.68,2.88-5.79,7.95-4.28,12.52c0-0.44,0-0.89,0-1.33
					c-0.28,0.9-0.57,1.8-0.85,2.7c0.8-0.61,1.61-1.22,2.41-1.84c-4.38-0.04-8.24,2.85-10.09,6.72c-1.55,3.25-1.62,6.77-0.78,10.22
					c0.78,3.21,2.47,6.17,5.15,8.14c1.43,1.05,3.14,1.68,4.89,1.93c0.56,0.08,1.11,0.14,1.67,0.16c-0.11,0,0.59,0.03,0.6,0.02
					c-0.06,0.07-0.4-0.06-0.46-0.11c-0.19-0.14-0.22-0.25-0.37-0.39c0.24,0.23,0.05,0.11,0-0.08c0.08,0.35,0.19,0.7,0.26,1.06
					c0.01,0.08,0.07,0.48,0.01,0.05c0.03,0.21,0.05,0.41,0.08,0.62c0.07,0.51,0.13,1.03,0.23,1.53c0.18,0.88,0.5,1.76,1,2.51
					c0.82,1.22,2.08,2.23,3.63,1.91c0.5-0.1,0.98-0.27,1.47-0.41c-1.03-0.58-2.05-1.16-3.08-1.75c0.96,5.2,5.05,9.33,10,10.92
					c2.74,0.87,5.68,0.93,8.48,0.4c1.25-0.24,2.5-0.63,3.6-1.27c0.98-0.57,1.76-1.36,2.64-2.06c-0.59,0.24-1.18,0.49-1.77,0.73
					c0.06-0.01,0.12-0.01,0.18-0.02c-0.42-0.11-0.84-0.23-1.26-0.34c1.84,0.8,3.72,1.42,5.73,1.6c2.67,0.23,4.98-0.94,6.91-2.7
					c1.88-1.72,3.3-3.98,4.55-6.18c1.52-2.64,2.6-5.39,2.91-8.44c-1.25,0.72-2.51,1.44-3.76,2.16c0.63,0.44,1.26,0.87,1.88,1.32
					c-0.58-0.42,0.27,0.24,0.54,0.4c0.35,0.2,0.74,0.38,1.13,0.48c0.91,0.25,1.87,0.26,2.79,0.06c3.87-0.81,5.51-4.56,5.6-8.17
					c0.08-3.37-0.23-7.45-2.77-9.95c-2.79-2.75-6.89-2.4-10.43-1.87c0.94,1.22,1.88,2.45,2.82,3.67c2.13-2.77,4.39-5.29,4.09-9.08
					c-0.46-5.85-6.48-9.93-12.09-7.87c0.81,1.39,1.62,2.79,2.43,4.18c1.47-1.2,1.3-3.8,1.32-5.59c0.02-2.12-0.26-4.23-1.13-6.17
					c-1.68-3.76-5.39-5.61-9.31-6.07c-3.77-0.45-8.19,0.25-11.45,2.29c-3.5,2.2-5.86,6.52-4.42,10.65c0.45,1.27,1.71,2.12,3.08,1.75
					c1.24-0.34,2.19-1.8,1.75-3.08c-0.82-2.34,0.8-4.33,2.81-5.39c2.21-1.17,5.05-1.47,7.51-1.28c2.13,0.16,4.35,1.01,5.39,2.99
					c1.22,2.34,0.78,5.35,0.53,7.86c0.24-0.59,0.49-1.18,0.73-1.77c-0.11,0.09-0.23,0.19-0.34,0.28c-1.91,1.57,0.14,5.02,2.43,4.18
					c3.09-1.13,6.4,1.13,5.7,4.58c-0.38,1.86-2.23,3.57-3.35,5.03c-0.59,0.77-0.35,2.09,0.2,2.78c0.68,0.85,1.59,1.05,2.63,0.9
					c1.66-0.25,4.2-0.68,5.57,0.59c1.44,1.33,1.31,4.22,1.31,6c0,0.99-0.02,2.23-0.65,3.07c-0.15,0.2-0.4,0.42-0.71,0.55
					c-0.01,0-0.8,0.14-0.46,0.14c0.17,0-0.36-0.16-0.18-0.03c0.22,0.16-0.31-0.23-0.49-0.37c-0.16-0.12-0.33-0.23-0.49-0.35
					c-0.48-0.34-0.96-0.67-1.44-1.01c-1.71-1.2-3.59,0.46-3.76,2.16c-0.23,2.19-1.25,4.23-2.34,6.1c-1.03,1.78-2.13,3.57-3.66,4.97
					c-1.28,1.17-2.41,1.47-4.06,1.11c-0.78-0.17-1.54-0.42-2.29-0.7c-0.14-0.05-0.27-0.1-0.4-0.16c0.33,0.14,0.38,0.16,0.17,0.07
					c-0.61-0.26-1.12-0.39-1.77-0.28c-0.99,0.18-1.48,0.8-2.21,1.39c-0.66,0.55-1.41,0.89-2.23,1.11c-2.03,0.55-4.22,0.56-6.25,0.02
					c-3.68-0.99-6.43-3.85-7.12-7.6c-0.24-1.33-1.86-2.08-3.08-1.75c-0.49,0.14-0.98,0.27-1.47,0.41c0.64,0.08,1.28,0.17,1.93,0.25
					c0.14,0.1-0.07-0.09-0.04-0.06c-0.07-0.08-0.14-0.22-0.17-0.31c0.02,0.05,0.12,0.31,0.03,0.03c-0.09-0.27-0.16-0.56-0.21-0.84
					c-0.02-0.12-0.04-0.25-0.06-0.37c-0.07-0.42,0.04,0.34-0.01-0.08c-0.18-1.31-0.25-2.67-0.95-3.84c-1.61-2.7-5.01-1.65-7.14-2.82
					c-1.8-0.99-2.97-2.8-3.58-4.72c-0.17-0.52-0.3-1.04-0.42-1.57c-0.05-0.24-0.09-0.47-0.14-0.71c-0.02-0.12-0.04-0.23-0.06-0.35
					c0.07,0.49,0-0.03-0.01-0.13c-0.09-1.12-0.14-2.22,0.13-3.32c0.73-2.9,3.07-5.65,6.22-5.62c1.13,0.01,2.08-0.79,2.41-1.84
					c0.39-1.23,1.14-2.72,0.85-4.03c-0.45-2.07-0.29-3.73,0.93-5.55c2.75-4.1,8.38-4.3,12.79-3.73c1.34,0.17,2.5-1.27,2.5-2.5
					C895.69,336.53,894.54,335.7,893.19,335.52L893.19,335.52z"/>
			</g>
		</g>
		<g>
			<path class="st1" d="M882.91,352.32c-1.99,4.55-1.73,11.65-1.82,15.54c0.08,1.17,0.94,2.64,2.01,3.08
				c0.89,0.44,1.69,0.53,2.78,0.54c2.4,0.01,4.65-1.31,5.68-3.47c0.56-1.19,0.9-2.48,1.26-3.64c0.36-1.66,0.97-4.21,1.22-6.81
				C890.59,355.08,886.91,353.02,882.91,352.32z"/>
			<path class="st2" d="M891.17,377.2c-0.62,0.06-1.05,0.64-0.92,1.25c0.15,0.71,0.46,1.59,1.11,2.41c1.48,1.86,3.71,2.17,4.88,2.19
				c0.44,0.01,0.87-0.18,1.14-0.53c1.88-2.39,4.6-4.26,7.66-5.82c0.47-0.24,0.25-0.95-0.27-0.89
				C900.25,376.27,895.71,376.73,891.17,377.2z"/>
			<path class="st0" d="M890.38,361.65c0.27,2.49-2.98,3.69-3.62,0.94c-0.45-1.33,0.57-2.88,1.92-2.99
				C889.51,360.01,890.56,360.59,890.38,361.65z"/>
		</g>
		<g>
			<path class="st1" d="M910.04,353.29c1.99,4.55,1.73,11.65,1.82,15.54c-0.08,1.17-0.94,2.64-2.01,3.08
				c-1.13,0.56-2.31,0.68-3.44,0.31c-0.51-0.17-1.05-0.24-1.58-0.33c-2.73-0.49-3.97-4.19-4.7-6.55c-0.36-1.66-0.97-4.21-1.22-6.81
				C902.36,356.05,906.04,353.99,910.04,353.29z"/>
			<path class="st0" d="M902.57,362.62c-0.27,2.49,2.98,3.69,3.62,0.94c0.45-1.33-0.57-2.88-1.92-2.99
				C903.44,360.98,902.39,361.56,902.57,362.62z"/>
		</g>
	</g>
	<g>
		<g>
			<path class="st0" d="M473.48,149.55c-10.63-1.46-22.05-0.72-31.11,5.04s-14.83,17.51-11.19,27.6l-2.24,7.07
				c-12.95-0.44-23.44,12.88-23.44,25.84c0,11.67,5.48,32.3,26.58,32.3c8.93,0,2.8,14.12,10.36,18.87l3.86-1.06
				c1.52,9.18,7.81,17.29,16.01,21.67s18.12,5.16,27.12,2.8c3.76-0.99,5.98-2.33,8.98-4.8c0.4-0.33,1.29-1.33,1.77-1.63
				c0.15-0.09,0.31-0.12,0.47-0.05c2.2,0.97,12.29,5.14,18.45,2.55c6.94-2.92,11.64-9.41,15.59-15.82
				c4.24-6.86,8.14-14.25,8.81-22.29l5.09,3.58c3.9,3.73,10.9,1.42,13.77-3.15c2.87-4.56,2.77-10.33,2.44-15.71
				c-0.34-5.74-1.07-12.01-5.2-16c-5.29-5.1-13.72-4.34-20.98-3.23l6.68-8.66c4.4-5.97,4.3-14.86-0.24-20.73
				c-4.54-5.87-13.12-8.2-20.01-5.44l0.89-0.73c0.95-9.09,1.63-19.17-3.89-26.45c-6.2-8.16-17.97-9.63-28.11-8.18
				c-6.58,0.94-13.27,2.96-18.21,7.42s-7.68,11.82-5.25,18.01"/>
			<g>
				<path d="M473.48,147.05c-9.54-1.28-19.48-0.8-28.35,3.21c-7.84,3.54-14.11,10.37-16.54,18.67c-1.33,4.52-1.37,9.45,0.19,13.92
					c0-0.44,0-0.89,0-1.33c-0.75,2.36-1.49,4.71-2.24,7.07c0.8-0.61,1.61-1.22,2.41-1.84c-10.29-0.25-19.18,7.12-23.22,16.21
					c-3.38,7.61-3.27,15.91-1.18,23.85c1.93,7.34,5.83,14.3,12.19,18.67c3.64,2.5,7.91,3.81,12.27,4.26
					c1.11,0.11,2.23,0.13,3.34,0.16c-0.03,0,0.77,0.08,0.39,0.02c-0.36-0.05,0.34,0.09,0.33,0.08c0.11,0.03,0.72,0.28,0.17,0.02
					c0.17,0.08,0.34,0.18,0.5,0.28c0.51,0.29-0.23-0.24,0.01,0.01c0.1,0.11,0.22,0.22,0.32,0.33c0.41,0.42-0.18-0.3,0,0.01
					c0.08,0.14,0.16,0.27,0.24,0.41c0.01,0.01,0.28,0.59,0.13,0.23c-0.16-0.36,0.09,0.26,0.1,0.27c0.13,0.41,0.25,0.82,0.35,1.24
					c0.47,2.05,0.49,3.25,0.82,5.53c0.31,2.12,0.79,4.2,1.79,6.11c0.99,1.89,3.24,4.74,5.63,4.23c1.29-0.27,2.57-0.71,3.84-1.06
					c-1.03-0.58-2.05-1.16-3.08-1.75c1.57,9.1,7.46,17.14,15.2,22.03c8.64,5.45,19.48,6.73,29.36,4.59c2.6-0.57,5.17-1.4,7.48-2.75
					c1.06-0.62,2.05-1.35,3.02-2.11c0.51-0.4,1.03-0.79,1.5-1.23c0.2-0.18,0.39-0.38,0.58-0.57c0.27-0.27,0.97-0.6,0.04-0.25
					c-0.44,0-0.89,0-1.33,0c-0.51-0.07-0.06-0.07,0.2,0.02c0.39,0.14,0.78,0.33,1.17,0.49c0.68,0.28,1.37,0.54,2.07,0.79
					c1.75,0.62,3.54,1.15,5.36,1.53c4.4,0.93,8.76,1.03,12.87-0.98c4.37-2.14,7.88-5.67,10.82-9.47c3.1-4.01,5.79-8.41,8.16-12.89
					c2.89-5.47,5.05-11.24,5.61-17.43c-1.25,0.72-2.51,1.44-3.76,2.16c1.24,0.87,2.47,1.74,3.71,2.61c0.44,0.31,0.91,0.61,1.34,0.94
					c0.22,0.17-0.74-0.6,0.01,0.05c0.3,0.26,0.66,0.53,1,0.75c0.68,0.44,1.46,0.77,2.22,1.01c5.51,1.72,11.76-1.69,14.42-6.53
					c3.28-5.97,2.79-13.5,2.06-20.05c-0.7-6.28-2.67-12.67-8.4-16.12c-6.16-3.7-13.89-2.76-20.64-1.74
					c0.94,1.22,1.88,2.45,2.82,3.67c1.41-1.83,2.83-3.66,4.24-5.5c1.72-2.24,3.42-4.31,4.51-6.96c3.85-9.32,0-20.71-9.21-25.14
					c-4.94-2.38-10.78-2.9-15.94-0.9c0.81,1.39,1.62,2.79,2.43,4.18c0.28-0.23,0.61-0.45,0.86-0.71c0.87-0.87,0.81-2.23,0.92-3.38
					c0.18-1.82,0.33-3.63,0.41-5.46c0.17-3.75,0.05-7.54-0.71-11.24c-1.43-6.95-5.69-12.92-12.1-16.08
					c-6.13-3.01-13.21-3.7-19.94-3.05c-7.46,0.71-15.08,2.67-21.06,7.39c-6.22,4.91-10.04,13.75-7.13,21.49
					c0.47,1.26,1.69,2.13,3.08,1.75c1.21-0.33,2.22-1.8,1.75-3.08c-2.01-5.34,0.11-11.2,4.06-15.07c4.56-4.46,11.09-6.32,17.24-7.23
					c10.29-1.52,23.64,0.2,28.08,11.12c2.68,6.59,1.87,14.15,1.16,21.04c0.24-0.59,0.49-1.18,0.73-1.77
					c-0.3,0.24-0.59,0.49-0.89,0.73c-1.89,1.55,0.14,5.07,2.43,4.18c7.25-2.81,16.34,0.37,19.26,7.87
					c1.45,3.74,1.45,8.07-0.15,11.76c-0.94,2.17-2.54,3.98-3.97,5.84c-1.46,1.89-2.92,3.79-4.38,5.68c-0.59,0.77-0.35,2.09,0.2,2.78
					c0.68,0.85,1.59,1.05,2.63,0.9c4.89-0.74,10.44-1.49,15.17,0.41c4.85,1.95,6.69,6.75,7.41,11.57c0.4,2.69,0.53,5.46,0.59,8.18
					c0.06,2.83-0.07,5.66-0.96,8.37c-0.71,2.18-1.98,4.07-3.96,5.27c-1.68,1.02-3.7,1.52-5.4,1.07c-1.34-0.36-2.59-1.57-3.85-2.45
					c-1.18-0.83-2.35-1.65-3.53-2.48c-1.69-1.19-3.61,0.45-3.76,2.16c-0.44,4.81-2.15,9.43-4.32,13.72
					c-2.11,4.18-4.57,8.25-7.28,12.07c-2.4,3.37-5.25,6.6-8.82,8.75c-3.29,1.98-6.47,2.22-10.21,1.5c-1.72-0.33-3.41-0.81-5.08-1.36
					c-0.66-0.22-1.31-0.46-1.96-0.7c-0.27-0.1-0.53-0.21-0.8-0.32c-0.12-0.05-0.23-0.1-0.35-0.14c-0.32-0.13,0.48,0.21,0.08,0.03
					c-1.02-0.44-1.97-0.73-3.04-0.22c-0.96,0.45-1.63,1.29-2.4,1.99c-1.46,1.32-3.2,2.47-4.99,3.28c-3.98,1.8-8.77,2.31-13.09,2.25
					c-4.53-0.07-9.14-0.95-13.28-2.83c-8.62-3.92-15.13-11.71-16.76-21.11c-0.23-1.33-1.87-2.08-3.08-1.75
					c-1.29,0.35-2.58,0.71-3.86,1.06c0.64,0.08,1.28,0.17,1.93,0.25c-0.49-0.32-0.29-0.16-0.7-0.55c-0.24-0.23-0.46-0.46-0.66-0.72
					c0.22,0.29-0.29-0.49-0.35-0.6c-0.27-0.47-0.37-0.7-0.42-0.83c-0.56-1.45-0.83-2.99-1.06-4.53c-0.06-0.43,0.04,0.33-0.01-0.09
					c-0.03-0.21-0.05-0.42-0.08-0.63c-0.04-0.33-0.08-0.66-0.12-0.99c-0.12-0.94-0.24-1.88-0.4-2.8c-0.25-1.4-0.65-2.85-1.4-4.07
					c-0.86-1.42-2.13-2.44-3.7-2.99c-1.83-0.64-3.9-0.37-5.8-0.56c-3.46-0.36-6.64-1.5-9.52-3.43c-5-3.35-8.16-9.05-9.85-14.86
					c-0.42-1.46-0.77-2.95-1.03-4.45c-0.06-0.35-0.12-0.7-0.18-1.06c-0.02-0.15-0.05-0.31-0.07-0.47c-0.11-0.74,0.04,0.31-0.02-0.14
					c-0.09-0.71-0.16-1.42-0.22-2.13c-0.27-3.53-0.03-6.97,1.04-10.37c2.72-8.57,10.31-16.33,19.77-16.1
					c1.13,0.03,2.08-0.8,2.41-1.84c0.72-2.28,1.58-4.56,2.17-6.87c0.24-0.91-0.01-1.66-0.27-2.54c-0.34-1.13-0.56-2.29-0.64-3.47
					c-0.14-2.24,0.12-4.44,0.73-6.6c1.27-4.45,3.92-8.4,7.35-11.47c3.85-3.44,8.81-5.48,13.8-6.57c6.21-1.36,12.69-1.18,18.97-0.34
					c1.34,0.18,2.5-1.28,2.5-2.5C475.98,148.05,474.82,147.23,473.48,147.05L473.48,147.05z"/>
			</g>
		</g>
		<g>
			<path class="st1" d="M446.51,187.03c-5.21,11.93-4.54,30.56-4.77,40.74c0.2,3.06,2.46,6.93,5.27,8.07
				c2.34,1.16,4.43,1.39,7.28,1.41c6.29,0.04,12.19-3.43,14.89-9.11c1.48-3.11,2.36-6.51,3.31-9.56c0.94-4.34,2.54-11.04,3.21-17.85
				C466.66,194.27,457.01,188.88,446.51,187.03z"/>
			<path class="st2" d="M468.18,252.27c-1.62,0.17-2.74,1.69-2.42,3.28c0.38,1.85,1.2,4.16,2.92,6.33c3.89,4.89,9.72,5.7,12.79,5.75
				c1.16,0.02,2.28-0.47,2.99-1.38c4.93-6.28,12.05-11.16,20.1-15.27c1.22-0.63,0.67-2.48-0.7-2.34
				C491.97,249.84,480.07,251.06,468.18,252.27z"/>
			<path class="st0" d="M466.11,211.51c0.7,6.52-7.82,9.67-9.49,2.47c-1.17-3.5,1.5-7.55,5.04-7.83
				C463.82,207.21,466.57,208.71,466.11,211.51z"/>
		</g>
		<g>
			<path class="st1" d="M517.65,189.57c5.21,11.93,4.54,30.56,4.77,40.74c-0.2,3.06-2.46,6.93-5.27,8.07
				c-2.97,1.48-6.05,1.77-9.02,0.8c-1.34-0.44-2.75-0.63-4.13-0.88c-7.17-1.29-10.4-11-12.33-17.19
				c-0.94-4.34-2.54-11.04-3.21-17.85C497.51,196.81,507.16,191.42,517.65,189.57z"/>
			<path class="st0" d="M498.06,214.05c-0.7,6.52,7.82,9.67,9.49,2.47c1.17-3.5-1.5-7.55-5.04-7.83
				C500.35,209.75,497.6,211.25,498.06,214.05z"/>
		</g>
	</g>
	<g>
		<g>
			<path d="M465.91,178.36c0.68,0.82,1.37,1.63,2,2.49c-0.12-0.17-0.19-0.25-0.03-0.03c0.08,0.11,0.16,0.21,0.24,0.32
				c0.16,0.21,0.32,0.42,0.48,0.64c0.34,0.45,0.67,0.91,1,1.37c1.26,1.76,2.46,3.56,3.6,5.4c0.69,1.11,2.27,1.64,3.42,0.9
				c1.11-0.72,1.63-2.23,0.9-3.42c-2.43-3.92-5.14-7.65-8.08-11.19c-0.84-1.01-2.68-0.93-3.54,0
				C464.93,175.9,465.02,177.29,465.91,178.36L465.91,178.36z"/>
		</g>
	</g>
	<g>
		<g>
			<path d="M490.92,186.75c0.68-1.02,1.38-2.03,2.12-3.01c0.18-0.25,0.37-0.49,0.56-0.73c0.22-0.29-0.25,0.31-0.02,0.02
				c0.11-0.13,0.21-0.27,0.32-0.4c0.38-0.48,0.77-0.96,1.16-1.42c1.58-1.88,3.27-3.66,5.04-5.36c0.95-0.9,0.98-2.64,0-3.54
				c-1.02-0.93-2.52-0.96-3.54,0c-3.76,3.58-7.09,7.6-9.96,11.92c-0.73,1.09-0.25,2.81,0.9,3.42
				C488.75,188.31,490.14,187.91,490.92,186.75L490.92,186.75z"/>
		</g>
	</g>
	<g>
		<g>
			<g>
				<path class="st0" d="M725.14,45.48c-6.41-0.88-13.31-0.43-18.77,3.04c-5.46,3.47-8.95,10.56-6.75,16.65l-1.35,4.27
					c-7.82-0.27-14.14,7.77-14.14,15.59c0,7.04,3.31,19.49,16.04,19.49c5.39,0,1.69,8.52,6.25,11.39l2.33-0.64
					c0.92,5.54,4.71,10.43,9.66,13.08c4.95,2.65,10.94,3.12,16.37,1.69c2.27-0.6,3.61-1.41,5.42-2.9c0.24-0.2,0.78-0.8,1.07-0.98
					c0.09-0.05,0.19-0.07,0.28-0.03c1.32,0.59,7.42,3.1,11.13,1.54c4.19-1.76,7.02-5.68,9.41-9.54c2.56-4.14,4.91-8.6,5.32-13.45
					l3.07,2.16c2.35,2.25,6.58,0.85,8.31-1.9c1.73-2.75,1.67-6.23,1.48-9.48c-0.21-3.46-0.64-7.25-3.14-9.66
					c-3.19-3.08-8.28-2.62-12.66-1.95l4.03-5.22c2.66-3.6,2.59-8.97-0.15-12.51c-2.74-3.54-7.92-4.95-12.07-3.28l0.54-0.44
					c0.57-5.49,0.99-11.57-2.35-15.96c-3.74-4.92-10.84-5.81-16.96-4.94c-3.97,0.57-8.01,1.79-10.99,4.48
					c-2.98,2.69-4.63,7.13-3.17,10.87"/>
				<g>
					<path d="M725.14,42.98c-7.45-0.99-15.63-0.2-21.72,4.6c-5.31,4.2-8.48,11.63-6.22,18.26c0-0.44,0-0.89,0-1.33
						c-0.45,1.42-0.9,2.84-1.35,4.27c0.8-0.61,1.61-1.22,2.41-1.84c-6.42-0.12-12.05,4.28-14.71,9.93
						c-2.27,4.82-2.32,10.04-1.06,15.14c1.18,4.74,3.65,9.17,7.67,12.05c2.24,1.61,4.9,2.47,7.61,2.81c0.73,0.09,1.47,0.15,2.2,0.15
						c0.14,0,0.29,0,0.44,0.01c-0.07-0.01-0.32,0.01-0.08-0.01c0.11-0.01,0.21,0.08,0.31,0.08c-0.2,0-0.28-0.21-0.06-0.01
						c-0.33-0.29-0.07-0.1,0.06,0.08c-0.26-0.36-0.07-0.1,0.03,0.12c0.17,0.37-0.05-0.35,0.08,0.25c0.06,0.25,0.13,0.49,0.19,0.74
						c0.06,0.27,0.1,0.53,0.14,0.8c0.05,0.29,0-0.02-0.01-0.06c0.02,0.16,0.04,0.33,0.06,0.49c0.1,0.77,0.19,1.53,0.31,2.3
						c0.21,1.27,0.57,2.54,1.2,3.67c0.86,1.52,2.51,3.25,4.42,2.85c0.78-0.16,1.56-0.43,2.33-0.64c-1.03-0.58-2.05-1.16-3.08-1.75
						c1.35,7.61,7.28,13.72,14.49,16.15c3.9,1.31,8.09,1.5,12.14,0.87c1.9-0.29,3.77-0.79,5.5-1.64c1.52-0.75,2.95-2.15,4.06-3
						c-0.42,0.11-0.84,0.23-1.26,0.34c0.09-0.01,0.19-0.02,0.28-0.03c-0.42-0.11-0.84-0.23-1.26-0.34c2.64,1.16,5.38,2.04,8.26,2.32
						c3.89,0.38,7.24-1.32,10.05-3.91c2.9-2.68,5.07-6.19,7.01-9.6c2.2-3.88,3.87-7.95,4.29-12.42c-1.25,0.72-2.51,1.44-3.76,2.16
						c0.77,0.54,1.54,1.08,2.3,1.62c0.16,0.11,1.07,0.81,0.5,0.36c0.78,0.62,1.58,1.13,2.56,1.39c3.71,1,7.81-1.08,9.65-4.35
						c2.13-3.76,1.89-8.49,1.43-12.65c-0.46-4.09-1.7-8.1-5.33-10.46c-3.95-2.58-9.05-1.96-13.46-1.3c0.94,1.22,1.88,2.45,2.82,3.67
						c1.17-1.52,2.34-3.03,3.51-4.55c1.93-2.5,2.99-5.57,2.79-8.76c-0.25-4.17-2.34-7.95-5.92-10.18c-3.34-2.08-7.71-2.6-11.39-1.2
						c0.81,1.39,1.62,2.79,2.43,4.18c0.82-0.67,1.17-1.31,1.29-2.4c0.13-1.19,0.23-2.39,0.3-3.59c0.13-2.41,0.06-4.83-0.38-7.21
						c-0.84-4.48-3.56-8.43-7.65-10.51c-3.87-1.97-8.38-2.47-12.67-2.06c-4.84,0.46-9.74,1.73-13.57,4.86
						c-3.94,3.22-6.22,8.87-4.42,13.82c0.46,1.27,1.7,2.12,3.08,1.75c1.22-0.34,2.21-1.8,1.75-3.08c-1.08-2.95,0.06-6.05,2.26-8.18
						c2.57-2.49,6.3-3.51,9.75-4.03c5.77-0.86,13.46-0.02,15.95,6.17c1.54,3.83,1.01,8.27,0.6,12.26c0.24-0.59,0.49-1.18,0.73-1.77
						c-0.18,0.15-0.36,0.29-0.54,0.44c-1.9,1.56,0.14,5.05,2.43,4.18c5.66-2.15,11.77,2.17,10.95,8.37
						c-0.27,2.01-1.36,3.5-2.55,5.05c-1.01,1.31-2.02,2.62-3.03,3.93c-0.59,0.77-0.35,2.09,0.2,2.78c0.68,0.85,1.59,1.05,2.63,0.9
						c3.21-0.48,7.62-1.15,10.23,1.3c2.61,2.45,2.5,7.27,2.5,10.56c0,3-0.84,7.24-4.36,7.33c-0.87,0.02-1.52-0.62-2.43-1.26
						c-0.8-0.56-1.59-1.12-2.39-1.68c-1.7-1.2-3.6,0.46-3.76,2.16c-0.53,5.5-3.78,10.74-6.92,15.14c-1.4,1.96-3.08,3.8-5.18,5.01
						c-1.8,1.03-3.57,0.99-5.59,0.54c-1.01-0.22-2-0.51-2.97-0.85c-0.35-0.12-0.69-0.25-1.03-0.38c-0.15-0.06-0.31-0.12-0.46-0.19
						c0.63,0.26,0.19,0.08,0.06,0.02c-1.71-0.73-2.84-0.01-4.09,1.13c-0.82,0.76-1.76,1.42-2.77,1.9
						c-4.5,2.11-10.68,1.73-15.14-0.25c-5.01-2.23-8.68-6.73-9.64-12.14c-0.24-1.33-1.87-2.08-3.08-1.75
						c-0.78,0.21-1.55,0.43-2.33,0.64c0.64,0.08,1.28,0.17,1.93,0.25c-0.24-0.16-0.38-0.3-0.51-0.49c-0.09-0.13-0.17-0.28-0.25-0.42
						c-0.37-0.65,0.12,0.41-0.14-0.3c-0.14-0.39-0.25-0.79-0.34-1.2c-0.05-0.25-0.1-0.5-0.14-0.75c-0.01-0.07-0.12-0.77-0.06-0.34
						c-0.27-1.92-0.34-3.94-1.33-5.66c-1.29-2.23-3.46-2.47-5.79-2.6c-2.05-0.12-3.97-0.7-5.63-1.72c-2.94-1.81-4.82-5.03-5.83-8.37
						c-0.26-0.87-0.48-1.76-0.65-2.66c-0.07-0.39-0.14-0.79-0.2-1.18c0.08,0.56-0.02-0.2-0.03-0.26c-0.02-0.22-0.05-0.45-0.07-0.67
						c-0.17-2-0.09-3.95,0.48-5.89c1.45-4.92,5.69-9.41,11.07-9.31c1.13,0.02,2.08-0.8,2.41-1.84c0.29-0.91,0.57-1.81,0.86-2.72
						c0.41-1.31,0.68-2.14,0.27-3.56c-0.94-3.26,0.1-6.65,1.95-9.39c4.64-6.83,13.94-7.44,21.38-6.46c1.34,0.18,2.5-1.28,2.5-2.5
						C727.64,43.98,726.48,43.15,725.14,42.98L725.14,42.98z"/>
				</g>
			</g>
			<g>
				<path class="st1" d="M708.87,68.1c-3.14,7.2-2.74,18.44-2.88,24.58c0.12,1.85,1.49,4.18,3.18,4.87c1.41,0.7,2.67,0.84,4.39,0.85
					c3.79,0.02,7.35-2.07,8.98-5.5c0.89-1.88,1.42-3.93,2-5.77c0.57-2.62,1.53-6.66,1.94-10.77
					C721.02,72.46,715.2,69.21,708.87,68.1z"/>
				<path class="st2" d="M721.94,107.46c-0.98,0.1-1.66,1.02-1.46,1.98c0.23,1.12,0.72,2.51,1.76,3.82
					c2.35,2.95,5.87,3.44,7.72,3.47c0.7,0.01,1.37-0.28,1.81-0.83c2.98-3.79,7.27-6.74,12.13-9.22c0.74-0.38,0.4-1.5-0.42-1.41
					C736.29,105.99,729.12,106.73,721.94,107.46z"/>
				<path class="st0" d="M720.69,82.86c0.42,3.93-4.72,5.83-5.73,1.49c-0.7-2.11,0.91-4.56,3.04-4.73
					C719.31,80.27,720.97,81.18,720.69,82.86z"/>
			</g>
			<g>
				<path class="st1" d="M751.79,69.63c3.14,7.2,2.74,18.44,2.88,24.58c-0.12,1.85-1.49,4.18-3.18,4.87
					c-1.79,0.89-3.65,1.07-5.44,0.48c-0.81-0.27-1.66-0.38-2.49-0.53c-4.33-0.78-6.28-6.64-7.44-10.37
					c-0.57-2.62-1.53-6.66-1.94-10.77C739.64,74,745.46,70.74,751.79,69.63z"/>
				<path class="st0" d="M739.97,84.4c-0.42,3.93,4.72,5.83,5.73,1.49c0.7-2.11-0.91-4.56-3.04-4.73
					C741.35,81.8,739.69,82.71,739.97,84.4z"/>
			</g>
		</g>
		<g>
			<g>
				<path d="M735.66,69.19c2.15-2.13,4.09-4.45,5.86-6.91c0.36-0.5,0.41-1.36,0.25-1.93c-0.16-0.58-0.61-1.21-1.15-1.49
					c-0.58-0.31-1.28-0.46-1.93-0.25c-0.65,0.21-1.1,0.59-1.49,1.15c-0.36,0.51-0.74,1.01-1.12,1.5c0.13-0.17,0.26-0.34,0.39-0.51
					c-1.34,1.73-2.79,3.37-4.35,4.9c-0.93,0.92-0.99,2.63,0,3.54C733.13,70.11,734.67,70.18,735.66,69.19L735.66,69.19z"/>
			</g>
		</g>
		<g>
			<g>
				<path d="M726.55,64.14c-2.15-1.1-4.21-2.38-6.14-3.83c-0.49-0.36-1.37-0.41-1.93-0.25c-0.58,0.16-1.21,0.61-1.49,1.15
					c-0.31,0.58-0.46,1.28-0.25,1.93c0.08,0.2,0.17,0.4,0.25,0.6c0.22,0.38,0.52,0.67,0.9,0.9c1.94,1.44,3.99,2.73,6.14,3.83
					c0.6,0.31,1.27,0.43,1.93,0.25c0.58-0.16,1.21-0.61,1.49-1.15C728.05,66.42,727.79,64.78,726.55,64.14L726.55,64.14z"/>
			</g>
		</g>
	</g>
	<g>
		<g>
			<g>
				<path class="st0" d="M13.76,181.95c-6.41-0.88-13.31-0.43-18.77,3.04c-5.46,3.47-8.95,10.56-6.75,16.65l-1.35,4.27
					c-7.82-0.27-14.14,7.77-14.14,15.59c0,7.04,3.31,19.49,16.04,19.49c5.39,0,1.69,8.52,6.25,11.39l2.33-0.64
					c0.92,5.54,4.71,10.43,9.66,13.08s10.94,3.12,16.37,1.69c2.27-0.6,3.61-1.41,5.42-2.9c0.24-0.2,0.78-0.8,1.07-0.98
					c0.09-0.05,0.19-0.07,0.28-0.03c1.32,0.59,7.42,3.1,11.13,1.54c4.19-1.76,7.02-5.68,9.41-9.54c2.56-4.14,4.91-8.6,5.32-13.45
					l3.07,2.16c2.35,2.25,6.58,0.85,8.31-1.9c1.73-2.75,1.67-6.23,1.48-9.48c-0.21-3.46-0.64-7.25-3.14-9.66
					c-3.19-3.08-8.28-2.62-12.66-1.95l4.03-5.22c2.66-3.6,2.59-8.97-0.15-12.51c-2.74-3.54-7.92-4.95-12.07-3.28l0.54-0.44
					c0.57-5.49,0.99-11.57-2.35-15.96c-3.74-4.92-10.84-5.81-16.96-4.94c-3.97,0.57-8.01,1.79-10.99,4.48s-4.63,7.13-3.17,10.87"/>
				<g>
					<path d="M13.76,179.45c-7.45-0.99-15.63-0.2-21.72,4.6c-5.31,4.2-8.48,11.63-6.22,18.26c0-0.44,0-0.89,0-1.33
						c-0.45,1.42-0.9,2.84-1.35,4.27c0.8-0.61,1.61-1.22,2.41-1.84c-6.42-0.12-12.05,4.28-14.71,9.93
						c-2.27,4.82-2.32,10.04-1.06,15.14c1.18,4.74,3.65,9.17,7.67,12.05c2.24,1.61,4.9,2.47,7.61,2.81c0.73,0.09,1.47,0.15,2.2,0.15
						c0.14,0,0.29,0,0.44,0.01c-0.07-0.01-0.32,0.01-0.08-0.01c0.11-0.01,0.21,0.08,0.31,0.08c-0.2,0-0.28-0.21-0.06-0.01
						c-0.33-0.29-0.07-0.1,0.06,0.08c-0.26-0.36-0.07-0.1,0.03,0.12c0.17,0.37-0.05-0.35,0.08,0.25c0.06,0.25,0.13,0.49,0.19,0.74
						c0.06,0.27,0.1,0.53,0.14,0.8c0.05,0.29,0-0.02-0.01-0.06c0.02,0.16,0.04,0.33,0.06,0.49c0.1,0.77,0.19,1.53,0.31,2.3
						c0.21,1.27,0.57,2.54,1.2,3.67c0.86,1.52,2.51,3.25,4.42,2.85c0.78-0.16,1.56-0.43,2.33-0.64c-1.03-0.58-2.05-1.16-3.08-1.75
						c1.35,7.61,7.28,13.72,14.49,16.15c3.9,1.31,8.09,1.5,12.14,0.87c1.9-0.29,3.77-0.79,5.5-1.64c1.52-0.75,2.95-2.15,4.06-3
						c-0.42,0.11-0.84,0.23-1.26,0.34c0.09-0.01,0.19-0.02,0.28-0.03c-0.42-0.11-0.84-0.23-1.26-0.34c2.64,1.16,5.38,2.04,8.26,2.32
						c3.89,0.38,7.24-1.32,10.05-3.91c2.9-2.68,5.07-6.19,7.01-9.6c2.2-3.88,3.87-7.95,4.29-12.42c-1.25,0.72-2.51,1.44-3.76,2.16
						c0.77,0.54,1.54,1.08,2.3,1.62c0.16,0.11,1.07,0.81,0.5,0.36c0.78,0.62,1.58,1.13,2.56,1.39c3.71,1,7.81-1.08,9.65-4.35
						c2.13-3.76,1.89-8.49,1.43-12.65c-0.46-4.09-1.7-8.1-5.33-10.46c-3.95-2.58-9.05-1.96-13.46-1.3c0.94,1.22,1.88,2.45,2.82,3.67
						c1.17-1.52,2.34-3.03,3.51-4.55c1.93-2.5,2.99-5.57,2.79-8.76c-0.25-4.17-2.34-7.95-5.92-10.18c-3.34-2.08-7.71-2.6-11.39-1.2
						c0.81,1.39,1.62,2.79,2.43,4.18c0.82-0.67,1.17-1.31,1.29-2.4c0.13-1.19,0.23-2.39,0.3-3.59c0.13-2.41,0.06-4.83-0.38-7.21
						c-0.84-4.48-3.56-8.43-7.65-10.51c-3.87-1.97-8.38-2.47-12.67-2.06c-4.84,0.46-9.74,1.73-13.57,4.86
						c-3.94,3.22-6.22,8.87-4.42,13.82c0.46,1.27,1.7,2.12,3.08,1.75c1.22-0.34,2.21-1.8,1.75-3.08c-1.08-2.95,0.06-6.05,2.26-8.18
						c2.57-2.49,6.3-3.51,9.75-4.03c5.77-0.86,13.46-0.02,15.95,6.17c1.54,3.83,1.01,8.27,0.6,12.26c0.24-0.59,0.49-1.18,0.73-1.77
						c-0.18,0.15-0.36,0.29-0.54,0.44c-1.9,1.56,0.14,5.05,2.43,4.18c5.66-2.15,11.77,2.17,10.95,8.37
						c-0.27,2.01-1.36,3.5-2.55,5.05c-1.01,1.31-2.02,2.62-3.03,3.93c-0.59,0.77-0.35,2.09,0.2,2.78c0.68,0.85,1.59,1.05,2.63,0.9
						c3.21-0.48,7.62-1.15,10.23,1.3c2.61,2.45,2.5,7.27,2.5,10.56c0,3-0.84,7.24-4.36,7.33c-0.87,0.02-1.52-0.62-2.43-1.26
						c-0.8-0.56-1.59-1.12-2.39-1.68c-1.7-1.2-3.6,0.46-3.76,2.16c-0.53,5.5-3.78,10.74-6.92,15.14c-1.4,1.96-3.08,3.8-5.18,5.01
						c-1.8,1.03-3.57,0.99-5.59,0.54c-1.01-0.22-2-0.51-2.97-0.85c-0.35-0.12-0.69-0.25-1.03-0.38c-0.15-0.06-0.31-0.12-0.46-0.19
						c0.63,0.26,0.19,0.08,0.06,0.02c-1.71-0.73-2.84-0.01-4.09,1.13c-0.82,0.76-1.76,1.42-2.77,1.9
						c-4.5,2.11-10.68,1.73-15.14-0.25c-5.01-2.23-8.68-6.73-9.64-12.14c-0.24-1.33-1.87-2.08-3.08-1.75
						c-0.78,0.21-1.55,0.43-2.33,0.64c0.64,0.08,1.28,0.17,1.93,0.25c-0.24-0.16-0.38-0.3-0.51-0.49c-0.09-0.13-0.17-0.28-0.25-0.42
						c-0.37-0.65,0.12,0.41-0.14-0.3c-0.14-0.39-0.25-0.79-0.34-1.2c-0.05-0.25-0.1-0.5-0.14-0.75c-0.01-0.07-0.12-0.77-0.06-0.34
						c-0.27-1.92-0.34-3.94-1.33-5.66c-1.29-2.23-3.46-2.47-5.79-2.6c-2.05-0.12-3.97-0.7-5.63-1.72c-2.94-1.81-4.82-5.03-5.83-8.37
						c-0.26-0.87-0.48-1.76-0.65-2.66c-0.07-0.39-0.14-0.79-0.2-1.18c0.08,0.56-0.02-0.2-0.03-0.26c-0.02-0.22-0.05-0.45-0.07-0.67
						c-0.17-2-0.09-3.95,0.48-5.89c1.45-4.92,5.69-9.41,11.07-9.31c1.13,0.02,2.08-0.8,2.41-1.84c0.29-0.91,0.57-1.81,0.86-2.72
						c0.41-1.31,0.68-2.14,0.27-3.56c-0.94-3.26,0.1-6.65,1.95-9.39c4.64-6.83,13.94-7.44,21.38-6.46c1.34,0.18,2.5-1.28,2.5-2.5
						C16.26,180.45,15.11,179.62,13.76,179.45L13.76,179.45z"/>
				</g>
			</g>
			<g>
				<path class="st1" d="M-2.51,204.57c-3.14,7.2-2.74,18.44-2.88,24.58c0.12,1.85,1.49,4.18,3.18,4.87
					c1.41,0.7,2.67,0.84,4.39,0.85c3.79,0.02,7.35-2.07,8.98-5.5c0.89-1.88,1.42-3.93,2-5.77c0.57-2.62,1.53-6.66,1.94-10.77
					C9.65,208.93,3.82,205.68-2.51,204.57z"/>
				<path class="st2" d="M10.57,243.93c-0.98,0.1-1.66,1.02-1.46,1.98c0.23,1.12,0.72,2.51,1.76,3.82c2.35,2.95,5.87,3.44,7.72,3.47
					c0.7,0.01,1.37-0.28,1.81-0.83c2.98-3.79,7.27-6.74,12.13-9.22c0.74-0.38,0.4-1.5-0.42-1.41
					C24.92,242.46,17.74,243.2,10.57,243.93z"/>
				<path class="st0" d="M9.31,219.33c0.42,3.93-4.72,5.83-5.73,1.49c-0.7-2.11,0.91-4.56,3.04-4.73
					C7.94,216.74,9.59,217.65,9.31,219.33z"/>
			</g>
			<g>
				<path class="st1" d="M40.42,206.1c3.14,7.2,2.74,18.44,2.88,24.58c-0.12,1.85-1.49,4.18-3.18,4.87
					c-1.79,0.89-3.65,1.07-5.44,0.48c-0.81-0.27-1.66-0.38-2.49-0.53c-4.33-0.78-6.28-6.64-7.44-10.37
					c-0.57-2.62-1.53-6.66-1.94-10.77C28.26,210.47,34.09,207.21,40.42,206.1z"/>
				<path class="st0" d="M28.6,220.87c-0.42,3.93,4.72,5.83,5.73,1.49c0.7-2.11-0.91-4.56-3.04-4.73
					C29.98,218.27,28.32,219.18,28.6,220.87z"/>
			</g>
		</g>
		<g>
			<g>
				<path d="M24.12,205.72c3.22-3.79,6.65-7.39,10.27-10.81c0.95-0.9,0.98-2.64,0-3.54c-1.02-0.94-2.52-0.96-3.54,0
					c-3.62,3.41-7.05,7.02-10.27,10.81c-0.85,0.99-1.05,2.57,0,3.54C21.51,206.58,23.21,206.78,24.12,205.72L24.12,205.72z"/>
			</g>
		</g>
		<g>
			<g>
				<path d="M13.94,200.11c-0.87-0.48-1.71-1.01-2.52-1.58c-0.2-0.14-0.4-0.29-0.6-0.44c-0.43-0.32,0.46,0.36,0.03,0.03
					c-0.08-0.06-0.16-0.12-0.23-0.19c-0.41-0.33-0.8-0.67-1.19-1.02c-0.73-0.67-1.43-1.37-2.09-2.12c-0.33-0.37-0.64-0.76-0.95-1.14
					c-0.19-0.24,0.33,0.45,0.07,0.09c-0.07-0.1-0.15-0.2-0.22-0.3c-0.16-0.22-0.32-0.44-0.47-0.67c-0.74-1.08-2.23-1.67-3.42-0.9
					c-1.07,0.69-1.69,2.27-0.9,3.42c2.58,3.75,5.96,6.91,9.96,9.12c1.14,0.63,2.78,0.31,3.42-0.9
					C15.46,202.35,15.16,200.79,13.94,200.11L13.94,200.11z"/>
			</g>
		</g>
	</g>
</g>
<g>
</g>
<g>
</g>
<g>
</g>
<g>
</g>
<g>
</g>
<g>
</g>
</svg>
