<?xml version="1.0" encoding="utf-8"?>
<!-- Generator: Adobe Illustrator 27.9.1, SVG Export Plug-In . SVG Version: 6.00 Build 0)  -->
<svg version="1.1" id="Layer_1" xmlns="http://www.w3.org/2000/svg" xmlns:xlink="http://www.w3.org/1999/xlink" x="0px" y="0px"
	 viewBox="0 0 394.33 383.06" style="enable-background:new 0 0 394.33 383.06;" xml:space="preserve">
<style type="text/css">
	.st0{fill:#EAEAE9;stroke:#000000;stroke-width:4.206;stroke-miterlimit:10;}
	.st1{fill:#F5EC43;stroke:#000000;stroke-width:4.6017;stroke-miterlimit:10;}
	.st2{fill:#FFFFFF;}
	.st3{fill:#B4B6B7;stroke:#000000;stroke-width:4.6017;stroke-miterlimit:10;}
</style>
<g>
	<g>
		<path class="st0" d="M135.14,373.57c108.96,33.07,236.84-49.03,256.82-162.4C402.67,5.14,87.18-85.89,13.94,112.52
			C-26.92,210.03,43.98,336.35,135.14,373.57z"/>
		<g>
			<g>
				<path class="st1" d="M103.2,79.44c-59.6-0.93-69.12,107.84-20.28,126.92C163.23,231.04,172.73,87.37,103.2,79.44z"/>
				<path d="M103.2,79.44c69.53,7.94,60.02,151.6-20.27,126.91C34.07,187.28,43.61,78.52,103.2,79.44z M100.98,197.44
					c10.61-2.72,26.68-6.44,30.27-18.86C171.45,100.55,1.31,186.73,100.98,197.44z M104.09,127.25
					c54.32-0.64-0.84-58.39-21.28-25.58C84.64,112.86,91.19,126.69,104.09,127.25z"/>
				<path class="st2" d="M100.98,197.44c-99.67-10.71,70.46-96.89,30.26-18.86C127.66,191,111.59,194.72,100.98,197.44z"/>
				<path class="st2" d="M104.09,127.25c-26.93-5.15-27.78-41.74,4.52-35.25C131.64,106.21,137.37,125.55,104.09,127.25z"/>
			</g>
			<path d="M266.97,59.06c-77.3-7.66-94.03,142.29-5.14,134.31c2.53-0.23,5.08-0.36,7.61-0.54c58.32-4.02,49.72-95.81,12.08-127.68
				C277.43,61.68,272.32,59.59,266.97,59.06z"/>
			<path class="st2" d="M249.56,184.08c-23.4,0-31.1-27.16-24.69-32.65c18.7-16.63,42.12-28.4,66.54-17.81c0,0,5.46,1.87,5.46,8.25
				C296.87,166.58,291.32,184.08,249.56,184.08z"/>
			<path class="st2" d="M270.1,71.03c28.25,14.4,8.53,27.24-9.56,27.21c-7.71-0.01-12.9-3.7-18.04-8.32
				c-5.7-5.11-4.08-15.35,2.91-17.73C253.73,69.37,264.52,68.77,270.1,71.03z"/>
		</g>
		<g>
			<g>
				<path d="M222.77,232.71c12.84-2.37,24.77-9.43,33.01-19.55c0.85-1.05,1.02-2.51,0-3.54c-0.88-0.88-2.68-1.05-3.54,0
					c-7.77,9.55-18.7,16.03-30.81,18.27c-1.33,0.25-2.08,1.85-1.75,3.08C220.08,232.36,221.44,232.95,222.77,232.71L222.77,232.71z"
					/>
			</g>
		</g>
	</g>
	<path class="st3" d="M298.96,297.8c-10.05,32.34-69.89,40.18-70.79,10.59c1.95-17.14,24.98-37.16,44.33-39.17
		C288.81,268.88,304.75,281.61,298.96,297.8z"/>
	<path class="st3" d="M86.21,262.05c-1.57-0.74-3.04-1.09-4.38-1.11c-5.42-10.43-13.54-19.8-23.37-23.99
		c-14.42-6.8-23.17,6.79-20.84,21.91c4.13,18.07,23.95,41.16,38.69,44.5c5.38,0.39,8.93-1.92,10.92-5.9
		c3.39,3.01,6.93,5.2,10.09,5.91C112.81,304.51,104.01,269.64,86.21,262.05z"/>
	<path class="st3" d="M119.92,29.87c12.53-19.62,54.71-17.57,50.13,1.59c-4.34,10.8-23.55,20.96-37.1,19.95
		C121.77,49.69,113.13,39.61,119.92,29.87z"/>
	<path class="st3" d="M126.48,355.75c7.17,6.63,23.94,9.96,32.59,8.33c9.23-2.54,9-12.2-0.87-18.83
		C138.86,334.19,111.34,342.65,126.48,355.75z"/>
	<path class="st3" d="M359.08,201.82c9.77-12.49,22.42,7.68,15.29,23.18c-4.57,7.99-13.63,8.92-17.59,2.14
		C353.77,220.72,354.06,207.77,359.08,201.82z"/>
</g>
<g>
</g>
<g>
</g>
<g>
</g>
<g>
</g>
<g>
</g>
<g>
</g>
</svg>
