<?xml version="1.0" encoding="utf-8"?>
<!-- Generator: Adobe Illustrator 27.9.1, SVG Export Plug-In . SVG Version: 6.00 Build 0)  -->
<svg version="1.1" id="Layer_1" xmlns="http://www.w3.org/2000/svg" xmlns:xlink="http://www.w3.org/1999/xlink" x="0px" y="0px"
	 viewBox="0 0 595.28 841.89" style="enable-background:new 0 0 595.28 841.89;" xml:space="preserve">
<style type="text/css">
	.st0{fill:#FFFFFF;}
</style>
<g>
	<g>
		<path class="st0" d="M346.95,427.99v-17.13h1.99v17.13H346.95z"/>
		<path class="st0" d="M362.14,427.99v-8.31c0-1.05-0.24-1.83-0.71-2.34s-1.22-0.77-2.24-0.77c-1.34,0-2.33,0.36-2.95,1.09
			s-0.94,1.93-0.94,3.6v6.74h-1.95v-12.84h1.58l0.32,1.76h0.09c0.4-0.63,0.96-1.12,1.68-1.47s1.52-0.52,2.4-0.52
			c1.55,0,2.71,0.37,3.49,1.12s1.17,1.94,1.17,3.58v8.38H362.14z"/>
		<path class="st0" d="M376.36,424.49c0,1.2-0.45,2.12-1.34,2.77s-2.14,0.97-3.75,0.97c-1.7,0-3.03-0.27-3.98-0.81v-1.8
			c0.62,0.31,1.28,0.56,1.99,0.74s1.39,0.27,2.04,0.27c1.02,0,1.8-0.16,2.34-0.49s0.82-0.82,0.82-1.48c0-0.5-0.22-0.93-0.65-1.28
			s-1.28-0.78-2.54-1.26c-1.2-0.45-2.04-0.83-2.55-1.17s-0.88-0.71-1.12-1.13s-0.37-0.93-0.37-1.51c0-1.05,0.43-1.87,1.28-2.48
			s2.02-0.91,3.5-0.91c1.38,0,2.73,0.28,4.05,0.84l-0.69,1.58c-1.29-0.53-2.46-0.8-3.5-0.8c-0.92,0-1.62,0.14-2.09,0.43
			s-0.7,0.69-0.7,1.2c0,0.34,0.09,0.64,0.26,0.88s0.46,0.47,0.85,0.69s1.14,0.54,2.25,0.95c1.52,0.55,2.55,1.11,3.09,1.68
			S376.36,423.63,376.36,424.49z"/>
		<path class="st0" d="M383.68,426.62c0.34,0,0.67-0.03,1-0.08c0.32-0.05,0.57-0.1,0.76-0.16v1.49c-0.21,0.1-0.52,0.19-0.93,0.25
			s-0.78,0.1-1.11,0.1c-2.48,0-3.73-1.31-3.73-3.93v-7.64h-1.84v-0.94l1.84-0.81l0.82-2.74h1.13v2.98h3.73v1.51h-3.73v7.56
			c0,0.77,0.18,1.37,0.55,1.78C382.53,426.41,383.03,426.62,383.68,426.62z"/>
		<path class="st0" d="M387.84,411.67c0-0.45,0.11-0.77,0.33-0.98c0.22-0.21,0.49-0.31,0.82-0.31c0.31,0,0.58,0.11,0.81,0.32
			c0.23,0.21,0.34,0.54,0.34,0.97s-0.11,0.76-0.34,0.98c-0.23,0.21-0.5,0.32-0.81,0.32c-0.33,0-0.6-0.11-0.82-0.32
			C387.94,412.43,387.84,412.1,387.84,411.67z M389.95,427.99H388v-12.84h1.95V427.99z"/>
		<path class="st0" d="M398.22,426.62c0.34,0,0.67-0.03,1-0.08c0.32-0.05,0.57-0.1,0.76-0.16v1.49c-0.21,0.1-0.52,0.19-0.93,0.25
			s-0.78,0.1-1.11,0.1c-2.48,0-3.73-1.31-3.73-3.93v-7.64h-1.84v-0.94l1.84-0.81l0.82-2.74h1.12v2.98h3.73v1.51h-3.73v7.56
			c0,0.77,0.18,1.37,0.55,1.78C397.07,426.41,397.58,426.62,398.22,426.62z"/>
		<path class="st0" d="M404.37,415.15v8.33c0,1.05,0.24,1.83,0.71,2.34c0.48,0.52,1.22,0.77,2.24,0.77c1.34,0,2.33-0.37,2.95-1.1
			s0.93-1.93,0.93-3.6v-6.75h1.95v12.84h-1.61l-0.28-1.72h-0.11c-0.4,0.63-0.95,1.12-1.66,1.45c-0.71,0.34-1.51,0.5-2.42,0.5
			c-1.56,0-2.73-0.37-3.51-1.11c-0.78-0.74-1.17-1.93-1.17-3.56v-8.4H404.37z"/>
		<path class="st0" d="M421.42,426.62c0.34,0,0.67-0.03,1-0.08c0.32-0.05,0.57-0.1,0.76-0.16v1.49c-0.21,0.1-0.52,0.19-0.93,0.25
			c-0.41,0.07-0.78,0.1-1.11,0.1c-2.48,0-3.73-1.31-3.73-3.93v-7.64h-1.84v-0.94l1.84-0.81l0.82-2.74h1.12v2.98h3.73v1.51h-3.73
			v7.56c0,0.77,0.18,1.37,0.55,1.78C420.28,426.41,420.78,426.62,421.42,426.62z"/>
		<path class="st0" d="M429.89,426.62c0.34,0,0.67-0.03,1-0.08c0.32-0.05,0.57-0.1,0.76-0.16v1.49c-0.21,0.1-0.52,0.19-0.93,0.25
			s-0.78,0.1-1.11,0.1c-2.48,0-3.73-1.31-3.73-3.93v-7.64h-1.84v-0.94l1.84-0.81l0.82-2.74h1.12v2.98h3.73v1.51h-3.73v7.56
			c0,0.77,0.18,1.37,0.55,1.78C428.75,426.41,429.25,426.62,429.89,426.62z"/>
		<path class="st0" d="M446.24,416.66h-3.27v11.33h-1.95v-11.33h-2.3v-0.88l2.3-0.7v-0.71c0-3.16,1.38-4.73,4.14-4.73
			c0.68,0,1.48,0.14,2.39,0.41l-0.5,1.56c-0.75-0.24-1.39-0.36-1.92-0.36c-0.74,0-1.28,0.24-1.63,0.73s-0.53,1.27-0.53,2.35v0.83
			h3.27V416.66z"/>
		<path class="st0" d="M459.67,421.56c0,2.09-0.53,3.73-1.58,4.9s-2.51,1.76-4.37,1.76c-1.15,0-2.17-0.27-3.06-0.81
			s-1.58-1.31-2.06-2.32c-0.49-1.01-0.73-2.19-0.73-3.54c0-2.09,0.52-3.72,1.57-4.89c1.05-1.17,2.5-1.75,4.36-1.75
			c1.8,0,3.22,0.6,4.28,1.79C459.14,417.9,459.67,419.52,459.67,421.56z M449.89,421.56c0,1.64,0.33,2.89,0.98,3.75
			s1.62,1.29,2.89,1.29c1.27,0,2.24-0.43,2.9-1.28c0.66-0.86,0.99-2.11,0.99-3.76c0-1.63-0.33-2.87-0.99-3.72
			c-0.66-0.85-1.63-1.27-2.92-1.27c-1.27,0-2.24,0.42-2.88,1.25C450.21,418.65,449.89,419.9,449.89,421.56z"/>
		<path class="st0" d="M468.94,414.91c0.57,0,1.08,0.05,1.54,0.14l-0.27,1.8c-0.53-0.12-1-0.18-1.41-0.18
			c-1.04,0-1.93,0.42-2.67,1.27c-0.74,0.84-1.11,1.89-1.11,3.15v6.89h-1.95v-12.84h1.61l0.22,2.38H465
			c0.48-0.84,1.05-1.48,1.72-1.93C467.4,415.14,468.14,414.91,468.94,414.91z"/>
		<path class="st0" d="M487.86,426.27h-0.11c-0.9,1.3-2.24,1.96-4.03,1.96c-1.68,0-2.99-0.57-3.92-1.72c-0.93-1.15-1.4-2.78-1.4-4.9
			s0.47-3.76,1.41-4.93s2.24-1.76,3.91-1.76c1.74,0,3.08,0.63,4.01,1.9h0.15l-0.08-0.93l-0.05-0.9v-5.23h1.95v18.23h-1.58
			L487.86,426.27z M483.96,426.6c1.33,0,2.29-0.36,2.89-1.08s0.9-1.89,0.9-3.5v-0.41c0-1.82-0.3-3.12-0.91-3.9
			c-0.61-0.78-1.57-1.17-2.9-1.17c-1.14,0-2.01,0.44-2.62,1.33c-0.61,0.89-0.91,2.14-0.91,3.76c0,1.64,0.3,2.88,0.9,3.71
			C481.92,426.18,482.8,426.6,483.96,426.6z"/>
		<path class="st0" d="M499.25,428.22c-1.9,0-3.4-0.58-4.49-1.73c-1.1-1.16-1.65-2.76-1.65-4.82c0-2.07,0.51-3.71,1.53-4.93
			s2.39-1.83,4.11-1.83c1.61,0,2.88,0.53,3.82,1.59s1.41,2.46,1.41,4.19v1.23h-8.85c0.04,1.51,0.42,2.65,1.14,3.43
			c0.72,0.78,1.74,1.17,3.05,1.17c1.38,0,2.75-0.29,4.1-0.87v1.73c-0.69,0.3-1.34,0.51-1.95,0.64
			C500.85,428.16,500.11,428.22,499.25,428.22z M498.72,416.54c-1.03,0-1.85,0.34-2.47,1.01c-0.61,0.67-0.98,1.6-1.08,2.79h6.71
			c0-1.23-0.27-2.17-0.82-2.82C500.51,416.87,499.73,416.54,498.72,416.54z"/>
		<path class="st0" d="M515.57,424.49c0,1.2-0.45,2.12-1.34,2.77s-2.14,0.97-3.75,0.97c-1.7,0-3.03-0.27-3.98-0.81v-1.8
			c0.62,0.31,1.28,0.56,1.99,0.74c0.71,0.18,1.39,0.27,2.04,0.27c1.01,0,1.8-0.16,2.34-0.49c0.55-0.32,0.82-0.82,0.82-1.48
			c0-0.5-0.22-0.93-0.65-1.28s-1.28-0.78-2.54-1.26c-1.2-0.45-2.04-0.83-2.55-1.17s-0.88-0.71-1.12-1.13s-0.37-0.93-0.37-1.51
			c0-1.05,0.42-1.87,1.28-2.48c0.85-0.61,2.02-0.91,3.5-0.91c1.38,0,2.73,0.28,4.05,0.84l-0.69,1.58c-1.29-0.53-2.46-0.8-3.5-0.8
			c-0.92,0-1.62,0.14-2.09,0.43s-0.7,0.69-0.7,1.2c0,0.34,0.09,0.64,0.26,0.88s0.46,0.47,0.85,0.69c0.39,0.22,1.14,0.54,2.25,0.95
			c1.52,0.55,2.55,1.11,3.09,1.68C515.3,422.93,515.57,423.63,515.57,424.49z"/>
		<path class="st0" d="M518.57,411.67c0-0.45,0.11-0.77,0.33-0.98c0.22-0.21,0.49-0.31,0.82-0.31c0.31,0,0.58,0.11,0.81,0.32
			c0.23,0.21,0.34,0.54,0.34,0.97s-0.11,0.76-0.34,0.98c-0.23,0.21-0.5,0.32-0.81,0.32c-0.33,0-0.6-0.11-0.82-0.32
			C518.68,412.43,518.57,412.1,518.57,411.67z M520.68,427.99h-1.95v-12.84h1.95V427.99z"/>
		<path class="st0" d="M535.32,415.15v1.23l-2.38,0.28c0.22,0.27,0.41,0.63,0.59,1.07c0.17,0.44,0.26,0.94,0.26,1.49
			c0,1.26-0.43,2.26-1.29,3.01c-0.86,0.75-2.04,1.12-3.54,1.12c-0.38,0-0.74-0.03-1.08-0.09c-0.83,0.44-1.24,0.99-1.24,1.65
			c0,0.35,0.14,0.61,0.43,0.78c0.29,0.17,0.79,0.25,1.49,0.25h2.27c1.39,0,2.46,0.29,3.21,0.88c0.75,0.59,1.12,1.44,1.12,2.55
			c0,1.42-0.57,2.51-1.71,3.25c-1.14,0.75-2.81,1.12-4.99,1.12c-1.68,0-2.98-0.31-3.88-0.94c-0.91-0.62-1.37-1.51-1.37-2.65
			c0-0.78,0.25-1.46,0.75-2.03c0.5-0.57,1.2-0.96,2.11-1.16c-0.33-0.15-0.6-0.38-0.83-0.69s-0.33-0.68-0.33-1.09
			c0-0.47,0.12-0.88,0.38-1.23c0.25-0.35,0.64-0.69,1.18-1.02c-0.67-0.27-1.21-0.74-1.62-1.39c-0.42-0.66-0.63-1.41-0.63-2.25
			c0-1.41,0.42-2.49,1.27-3.25s2.04-1.14,3.59-1.14c0.67,0,1.28,0.08,1.82,0.23H535.32z M525.07,430.15c0,0.7,0.29,1.22,0.88,1.58
			s1.42,0.54,2.52,0.54c1.63,0,2.84-0.24,3.63-0.73s1.18-1.15,1.18-1.99c0-0.7-0.22-1.18-0.64-1.45c-0.43-0.27-1.24-0.4-2.43-0.4
			h-2.33c-0.88,0-1.57,0.21-2.06,0.63S525.07,429.36,525.07,430.15z M526.13,419.26c0,0.9,0.25,1.58,0.76,2.04
			c0.51,0.46,1.21,0.69,2.12,0.69c1.9,0,2.85-0.92,2.85-2.77c0-1.93-0.96-2.89-2.88-2.89c-0.91,0-1.62,0.25-2.11,0.74
			S526.13,418.29,526.13,419.26z"/>
		<path class="st0" d="M546.74,427.99v-8.31c0-1.05-0.24-1.83-0.71-2.34c-0.48-0.52-1.22-0.77-2.24-0.77
			c-1.34,0-2.33,0.36-2.95,1.09c-0.63,0.73-0.94,1.93-0.94,3.6v6.74h-1.95v-12.84h1.58l0.32,1.76h0.09c0.4-0.63,0.96-1.12,1.68-1.47
			c0.72-0.35,1.52-0.52,2.4-0.52c1.55,0,2.71,0.37,3.49,1.12c0.78,0.75,1.17,1.94,1.17,3.58v8.38H546.74z"/>
	</g>
	<g>
		<g>
			<path class="st0" d="M79.64,398.59H57.58c-6.09,0-11.02,4.94-11.02,11.02v22.06c0,6.08,4.94,11.02,11.02,11.02h22.06
				c6.09,0,11.02-4.94,11.02-11.02v-22.06C90.66,403.52,85.73,398.59,79.64,398.59z M79.64,431.67H57.58v-22.06h22.06V431.67z"/>
			<path class="st0" d="M68.54,411.52c-5,0-9.05,4.05-9.05,9.05c0,5,4.05,9.05,9.05,9.05c5,0,9.05-4.05,9.05-9.05
				C77.59,415.57,73.53,411.52,68.54,411.52z"/>
		</g>
		<path class="st0" d="M121.52,398.63L143,429.86v-24.02l-0.06-5.71h-6.45v-1.49h13.84v1.49h-5.34l-0.06,5.71v37.18l-0.99,0.31
			l-28.8-41.91v33.65l0.06,5.9h6.64v1.49h-14.34v-1.49h5.71l0.06-5.9v-29.24l-0.06-5.71h-5.71v-1.49H121.52z"/>
		<path class="st0" d="M193.16,398.63v14.03h-1.86c-0.19-2.17-0.44-4.9-2.36-8.13c-2.23-3.79-5.28-3.97-8.26-4.1h-3.48l-0.06,5.59
			v28.62l0.06,6.33h6.71v1.49h-20.36v-1.49h6.7l0.06-6.33v-28.62l-0.06-5.59h-2.86c-3.6,0.06-6.33,0.06-8.94,4.22
			c-2.05,3.29-2.23,5.9-2.36,8.01h-1.8v-14.03H193.16z"/>
		<path class="st0" d="M210.79,398.63l21.48,31.22v-24.02l-0.06-5.71h-6.46v-1.49h13.84v1.49h-5.34l-0.06,5.71v37.18l-0.99,0.31
			l-28.8-41.91v33.65l0.06,5.9h6.64v1.49h-14.34v-1.49h5.71l0.06-5.9v-29.24l-0.06-5.71h-5.71v-1.49H210.79z"/>
		<path class="st0" d="M263.7,398.63v1.49h-6.15l-0.06,5.28v23.72c0.06,6.15,0.19,11.98,11.73,11.98c11.67,0,12.41-5.09,12.6-10.62
			V405.4l-0.06-5.28h-6.27v-1.49h13.71v1.49h-5.4l-0.06,5.28V428c-0.06,8.13-0.13,15.08-16.2,15.08c-2.29,0-7.76-0.25-11.23-1.68
			c-5.53-2.36-5.65-7.2-5.71-13.16V405.4l-0.06-5.28h-5.34v-1.49H263.7z"/>
	</g>
	<path class="st0" d="M316.32,442.5c-0.28,0-0.5-0.22-0.5-0.5v-42.86c0-0.28,0.22-0.5,0.5-0.5s0.5,0.22,0.5,0.5V442
		C316.82,442.28,316.6,442.5,316.32,442.5z"/>
</g>
<g>
</g>
<g>
</g>
<g>
</g>
<g>
</g>
<g>
</g>
<g>
</g>
</svg>
