<?xml version="1.0" encoding="utf-8"?>
<!-- Generator: Adobe Illustrator 27.9.1, SVG Export Plug-In . SVG Version: 6.00 Build 0)  -->
<svg version="1.1" id="Layer_1" xmlns="http://www.w3.org/2000/svg" xmlns:xlink="http://www.w3.org/1999/xlink" x="0px" y="0px"
	 viewBox="0 0 83.59 84.27" style="enable-background:new 0 0 83.59 84.27;" xml:space="preserve">
<style type="text/css">
	.st0{fill:#F5EC43;stroke:#000000;stroke-width:4.6017;stroke-miterlimit:10;}
</style>
<path class="st0" d="M27.87,55.14c-3.64-3.28-6.51-0.89-14.29-4.24c-2.52-1.08-11.22-4.83-11.28-9.8c-0.06-5.37,10-9.76,12.44-10.82
	c7.92-3.45,12.47-2.09,14.39-5.66c1.5-2.79-0.85-4.45-0.34-10.66c0.2-2.47,0.77-9.37,4.89-11.2c4.47-1.98,10.53,3.18,11.02,3.61
	c4.76,4.16,3.84,8.18,7.33,9.39c3.4,1.18,5.14-2.34,11.58-3.08c3.64-0.42,10.45-0.14,12.35,3.5c2.12,4.06-2.74,10.62-4.48,12.98
	c-3.8,5.14-6.53,5.36-6.67,8.06c-0.2,3.79,5.11,4.91,10.53,11.86c0.91,1.17,8.09,10.38,5.34,14.76c-2.38,3.79-11.45,2.79-15.66,1.85
	c-6-1.33-8.76-3.98-10.94-2.49c-2.02,1.38-0.55,4.26-2.24,9.07c-1.57,4.46-5.63,9.92-9.53,9.69c-3.89-0.22-6.48-6.05-8.67-10.99
	C29.58,61.85,31.58,58.48,27.87,55.14z"/>
<g>
</g>
<g>
</g>
<g>
</g>
<g>
</g>
<g>
</g>
<g>
</g>
</svg>
